ISO-10303-21;
HEADER;
FILE_DESCRIPTION (( 'STEP AP214' ),
    '1' );
FILE_NAME ('RT1206BRD07120RL.STEP',
    '2026-04-22T21:46:16',
    ( '' ),
    ( '' ),
    'SwSTEP 2.0',
    'SolidWorks 2021',
    '' );
FILE_SCHEMA (( 'AUTOMOTIVE_DESIGN' ));
ENDSEC;

DATA;
#1 = DIRECTION ( 'NONE',  ( 0.000000000000000000, -1.000000000000000000, 0.000000000000000000 ) ) ;
#2 = CARTESIAN_POINT ( 'NONE',  ( -1.517500000000000071, 0.6174999999999999378, -0.8000000000000000444 ) ) ;
#3 = PLANE ( 'NONE',  #756 ) ;
#4 = DIRECTION ( 'NONE',  ( -1.000000000000000000, 1.290716872006551794E-16, 0.000000000000000000 ) ) ;
#5 = CARTESIAN_POINT ( 'NONE',  ( -1.149999999999999911, 0.000000000000000000, -0.8000000000000000444 ) ) ;
#6 = LINE ( 'NONE', #948, #724 ) ;
#7 = EDGE_CURVE ( 'NONE', #1173, #1007, #279, .T. ) ;
#8 = DIRECTION ( 'NONE',  ( 0.000000000000000000, 0.000000000000000000, -1.000000000000000000 ) ) ;
#9 = CARTESIAN_POINT ( 'NONE',  ( 1.550000000000000044, -1.898202538678395240E-16, -0.8000000000000000444 ) ) ;
#10 = CARTESIAN_POINT ( 'NONE',  ( -1.517500000000000071, 0.03249999999999999417, 0.8000000000000000444 ) ) ;
#11 = AXIS2_PLACEMENT_3D ( 'NONE', #992, #591, #881 ) ;
#12 = CARTESIAN_POINT ( 'NONE',  ( -1.149999999999999911, 0.6174999999999999378, 0.5333333333333328818 ) ) ;
#13 = EDGE_CURVE ( 'NONE', #884, #594, #358, .T. ) ;
#14 = CARTESIAN_POINT ( 'NONE',  ( -1.149999999999999911, 0.6174999999999999378, -0.5333333333333328818 ) ) ;
#15 = SURFACE_STYLE_FILL_AREA ( #122 ) ;
#16 =( LENGTH_UNIT ( ) NAMED_UNIT ( * ) SI_UNIT ( .MILLI., .METRE. ) );
#17 = CARTESIAN_POINT ( 'NONE',  ( 1.550000000000000044, -1.898202538678395240E-16, -0.8000000000000000444 ) ) ;
#18 = ORIENTED_EDGE ( 'NONE', *, *, #1092, .T. ) ;
#19 = ORIENTED_EDGE ( 'NONE', *, *, #931, .T. ) ;
#20 = CARTESIAN_POINT ( 'NONE',  ( 1.099999999999999645, 0.6500000000000000222, 0.5333333333333328818 ) ) ;
#21 = EDGE_CURVE ( 'NONE', #302, #1190, #742, .T. ) ;
#22 = CARTESIAN_POINT ( 'NONE',  ( 1.310000000000000053, 0.6174999999999999378, -0.5333333333333328818 ) ) ;
#23 = LINE ( 'NONE', #307, #902 ) ;
#24 = LINE ( 'NONE', #661, #1096 ) ;
#25 = ORIENTED_EDGE ( 'NONE', *, *, #601, .T. ) ;
#26 = CARTESIAN_POINT ( 'NONE',  ( -1.099999999999999645, 0.6500000000000001332, 0.8000000000000000444 ) ) ;
#27 = VECTOR ( 'NONE', #641, 1000.000000000000000 ) ;
#28 = DIRECTION ( 'NONE',  ( 9.856383386231858827E-17, 1.000000000000000000, 0.000000000000000000 ) ) ;
#29 = CARTESIAN_POINT ( 'NONE',  ( -1.099999999999999867, 0.6500000000000001332, -0.8000000000000000444 ) ) ;
#30 = VECTOR ( 'NONE', #560, 1000.000000000000000 ) ;
#31 = CARTESIAN_POINT ( 'NONE',  ( -1.149999999999999911, 0.000000000000000000, 0.8000000000000000444 ) ) ;
#32 = CARTESIAN_POINT ( 'NONE',  ( 1.099999999999999645, 0.6174999999999999378, 0.5333333333333328818 ) ) ;
#33 = ADVANCED_FACE ( 'NONE', ( #1030 ), #366, .F. ) ;
#34 = VERTEX_POINT ( 'NONE', #643 ) ;
#35 = ORIENTED_EDGE ( 'NONE', *, *, #167, .F. ) ;
#36 = VECTOR ( 'NONE', #736, 1000.000000000000000 ) ;
#37 = CARTESIAN_POINT ( 'NONE',  ( 1.149999999999999911, 0.03249999999999999417, -0.8000000000000000444 ) ) ;
#38 = EDGE_LOOP ( 'NONE', ( #78, #45, #424, #676 ) ) ;
#39 = VECTOR ( 'NONE', #497, 1000.000000000000000 ) ;
#40 = ORIENTED_EDGE ( 'NONE', *, *, #1065, .T. ) ;
#41 = EDGE_CURVE ( 'NONE', #788, #609, #559, .T. ) ;
#42 = CARTESIAN_POINT ( 'NONE',  ( 1.310000000000000053, 0.6500000000000000222, -0.5333333333333328818 ) ) ;
#43 = CARTESIAN_POINT ( 'NONE',  ( 1.517500000000000071, 0.03249999999999999417, 0.8000000000000000444 ) ) ;
#44 = LINE ( 'NONE', #440, #27 ) ;
#45 = ORIENTED_EDGE ( 'NONE', *, *, #749, .F. ) ;
#46 = ORIENTED_EDGE ( 'NONE', *, *, #465, .T. ) ;
#47 = AXIS2_PLACEMENT_3D ( 'NONE', #896, #52, #329 ) ;
#48 = AXIS2_PLACEMENT_3D ( 'NONE', #562, #780, #1151 ) ;
#49 = ORIENTED_EDGE ( 'NONE', *, *, #601, .F. ) ;
#50 = EDGE_CURVE ( 'NONE', #945, #162, #372, .T. ) ;
#51 = CARTESIAN_POINT ( 'NONE',  ( 1.550000000000000044, -1.898202538678395240E-16, 0.8000000000000000444 ) ) ;
#52 = DIRECTION ( 'NONE',  ( -1.000000000000000000, 0.000000000000000000, 0.000000000000000000 ) ) ;
#53 = ORIENTED_EDGE ( 'NONE', *, *, #566, .F. ) ;
#54 = EDGE_LOOP ( 'NONE', ( #74, #205, #596, #732 ) ) ;
#55 = CARTESIAN_POINT ( 'NONE',  ( 1.099999999999999867, 0.6499999999999999112, 0.8000000000000000444 ) ) ;
#56 = ADVANCED_FACE ( 'NONE', ( #1118 ), #934, .F. ) ;
#57 = ORIENTED_EDGE ( 'NONE', *, *, #829, .F. ) ;
#58 =( NAMED_UNIT ( * ) PLANE_ANGLE_UNIT ( ) SI_UNIT ( $, .RADIAN. ) );
#59 = VECTOR ( 'NONE', #1146, 1000.000000000000000 ) ;
#60 = ORIENTED_EDGE ( 'NONE', *, *, #292, .T. ) ;
#61 = CARTESIAN_POINT ( 'NONE',  ( -1.517500000000000071, 0.03249999999999999417, 0.8000000000000000444 ) ) ;
#62 = ORIENTED_EDGE ( 'NONE', *, *, #1070, .T. ) ;
#63 = ORIENTED_EDGE ( 'NONE', *, *, #465, .F. ) ;
#64 = VECTOR ( 'NONE', #1016, 1000.000000000000000 ) ;
#65 = DIRECTION ( 'NONE',  ( 1.290716872006551794E-16, -1.000000000000000000, 0.000000000000000000 ) ) ;
#66 = VERTEX_POINT ( 'NONE', #272 ) ;
#67 = ORIENTED_EDGE ( 'NONE', *, *, #13, .F. ) ;
#68 = EDGE_CURVE ( 'NONE', #647, #878, #825, .T. ) ;
#69 = VECTOR ( 'NONE', #677, 1000.000000000000000 ) ;
#70 = FACE_OUTER_BOUND ( 'NONE', #692, .T. ) ;
#71 = CARTESIAN_POINT ( 'NONE',  ( 1.149999999999999911, 0.000000000000000000, 0.8000000000000000444 ) ) ;
#72 = VECTOR ( 'NONE', #1059, 1000.000000000000000 ) ;
#73 = CARTESIAN_POINT ( 'NONE',  ( -1.099999999999999645, 0.6500000000000000222, -0.8000000000000000444 ) ) ;
#74 = ORIENTED_EDGE ( 'NONE', *, *, #695, .F. ) ;
#75 = CARTESIAN_POINT ( 'NONE',  ( 1.550000000000000044, -1.898202538678395240E-16, 0.8000000000000000444 ) ) ;
#76 = EDGE_CURVE ( 'NONE', #34, #1062, #363, .T. ) ;
#77 = CARTESIAN_POINT ( 'NONE',  ( -1.310000000000000053, 0.6500000000000000222, 0.5333333333333328818 ) ) ;
#78 = ORIENTED_EDGE ( 'NONE', *, *, #931, .F. ) ;
#79 = EDGE_LOOP ( 'NONE', ( #662, #618, #898, #785, #319, #523, #360, #832 ) ) ;
#80 = CARTESIAN_POINT ( 'NONE',  ( -1.310000000000000053, 0.6174999999999999378, 0.5333333333333328818 ) ) ;
#81 = VECTOR ( 'NONE', #1014, 1000.000000000000000 ) ;
#82 = EDGE_CURVE ( 'NONE', #487, #66, #410, .T. ) ;
#83 = MECHANICAL_DESIGN_GEOMETRIC_PRESENTATION_REPRESENTATION (  '', ( #240 ), #895 ) ;
#84 = DIRECTION ( 'NONE',  ( 0.000000000000000000, 0.000000000000000000, -1.000000000000000000 ) ) ;
#85 = PLANE ( 'NONE',  #399 ) ;
#86 = EDGE_CURVE ( 'NONE', #1062, #431, #113, .T. ) ;
#87 = LINE ( 'NONE', #640, #36 ) ;
#88 = EDGE_LOOP ( 'NONE', ( #807, #163, #155, #183, #493, #204, #396, #103 ) ) ;
#89 = VECTOR ( 'NONE', #148, 1000.000000000000000 ) ;
#90 = LINE ( 'NONE', #80, #815 ) ;
#91 = MANIFOLD_SOLID_BREP ( 'NONE', #810 ) ;
#92 = VECTOR ( 'NONE', #484, 1000.000000000000000 ) ;
#93 = DIRECTION ( 'NONE',  ( 4.745506346695990935E-16, 1.000000000000000000, 0.000000000000000000 ) ) ;
#94 = VECTOR ( 'NONE', #849, 1000.000000000000000 ) ;
#95 = EDGE_CURVE ( 'NONE', #936, #458, #584, .T. ) ;
#96 = ORIENTED_EDGE ( 'NONE', *, *, #445, .T. ) ;
#97 = LINE ( 'NONE', #955, #1091 ) ;
#98 = CLOSED_SHELL ( 'NONE', ( #277, #33, #996, #741, #390, #787, #599, #631, #160, #850, #348, #208, #414, #908 ) ) ;
#99 = CARTESIAN_POINT ( 'NONE',  ( 1.517500000000000071, 0.6174999999999999378, -3.890865574559980278 ) ) ;
#100 = CARTESIAN_POINT ( 'NONE',  ( 1.310000000000000053, 0.6174999999999999378, 0.5333333333333328818 ) ) ;
#101 = PRODUCT_DEFINITION_CONTEXT ( 'detailed design', #357, 'design' ) ;
#102 = FILL_AREA_STYLE ('',( #585 ) ) ;
#103 = ORIENTED_EDGE ( 'NONE', *, *, #95, .F. ) ;
#104 = LINE ( 'NONE', #12, #553 ) ;
#105 = EDGE_CURVE ( 'NONE', #458, #1081, #1035, .T. ) ;
#106 = LINE ( 'NONE', #99, #1095 ) ;
#107 = CARTESIAN_POINT ( 'NONE',  ( -1.149999999999999911, 0.6174999999999999378, -0.8000000000000000444 ) ) ;
#108 = CARTESIAN_POINT ( 'NONE',  ( -1.149999999999999911, 0.03249999999999999417, 0.8000000000000000444 ) ) ;
#109 = DIRECTION ( 'NONE',  ( 0.000000000000000000, 0.000000000000000000, -1.000000000000000000 ) ) ;
#110 = VERTEX_POINT ( 'NONE', #761 ) ;
#111 = LINE ( 'NONE', #753, #269 ) ;
#112 = PLANE ( 'NONE',  #154 ) ;
#113 = LINE ( 'NONE', #31, #590 ) ;
#114 =( GEOMETRIC_REPRESENTATION_CONTEXT ( 3 ) GLOBAL_UNCERTAINTY_ASSIGNED_CONTEXT ( ( #897 ) ) GLOBAL_UNIT_ASSIGNED_CONTEXT ( ( #133, #1075, #500 ) ) REPRESENTATION_CONTEXT ( 'NONE', 'WORKASPACE' ) );
#115 = LINE ( 'NONE', #492, #337 ) ;
#116 = ORIENTED_EDGE ( 'NONE', *, *, #105, .T. ) ;
#117 = VERTEX_POINT ( 'NONE', #858 ) ;
#118 = DIRECTION ( 'NONE',  ( 0.000000000000000000, 0.000000000000000000, -1.000000000000000000 ) ) ;
#119 = CARTESIAN_POINT ( 'NONE',  ( -1.517500000000000071, 0.6174999999999999378, 0.8000000000000000444 ) ) ;
#120 = CARTESIAN_POINT ( 'NONE',  ( -1.517500000000000071, 0.6174999999999999378, -3.890865574559980278 ) ) ;
#121 = EDGE_CURVE ( 'NONE', #715, #995, #130, .T. ) ;
#122 = FILL_AREA_STYLE ('',( #477 ) ) ;
#123 = DIRECTION ( 'NONE',  ( 0.000000000000000000, 0.000000000000000000, 1.000000000000000000 ) ) ;
#124 = ORIENTED_EDGE ( 'NONE', *, *, #129, .F. ) ;
#125 = ORIENTED_EDGE ( 'NONE', *, *, #1159, .T. ) ;
#126 = SURFACE_STYLE_FILL_AREA ( #432 ) ;
#127 = FACE_OUTER_BOUND ( 'NONE', #879, .T. ) ;
#128 = VECTOR ( 'NONE', #480, 1000.000000000000000 ) ;
#129 = EDGE_CURVE ( 'NONE', #1101, #884, #1134, .T. ) ;
#130 = LINE ( 'NONE', #193, #831 ) ;
#131 = ORIENTED_EDGE ( 'NONE', *, *, #21, .F. ) ;
#132 = VERTEX_POINT ( 'NONE', #392 ) ;
#133 =( LENGTH_UNIT ( ) NAMED_UNIT ( * ) SI_UNIT ( .MILLI., .METRE. ) );
#134 = CARTESIAN_POINT ( 'NONE',  ( 1.149999999999999911, 0.000000000000000000, 0.8000000000000000444 ) ) ;
#135 = CARTESIAN_POINT ( 'NONE',  ( 0.000000000000000000, 0.000000000000000000, -0.8000000000000000444 ) ) ;
#136 = CARTESIAN_POINT ( 'NONE',  ( -1.149999999999999911, 0.03249999999999999417, 0.8000000000000000444 ) ) ;
#137 = ORIENTED_EDGE ( 'NONE', *, *, #1133, .F. ) ;
#138 = EDGE_CURVE ( 'NONE', #498, #535, #882, .T. ) ;
#139 = DIRECTION ( 'NONE',  ( 0.000000000000000000, -1.000000000000000000, 0.000000000000000000 ) ) ;
#140 = DIRECTION ( 'NONE',  ( 0.000000000000000000, -1.000000000000000000, 0.000000000000000000 ) ) ;
#141 = AXIS2_PLACEMENT_3D ( 'NONE', #875, #1044, #572 ) ;
#142 = ORIENTED_EDGE ( 'NONE', *, *, #719, .T. ) ;
#143 = EDGE_LOOP ( 'NONE', ( #721, #959, #1211, #861 ) ) ;
#144 = LINE ( 'NONE', #803, #806 ) ;
#145 = ORIENTED_EDGE ( 'NONE', *, *, #540, .T. ) ;
#146 = ADVANCED_FACE ( 'NONE', ( #382 ), #564, .T. ) ;
#147 = CARTESIAN_POINT ( 'NONE',  ( 1.099999999999999645, 0.6174999999999999378, -0.5333333333333328818 ) ) ;
#148 = DIRECTION ( 'NONE',  ( 0.000000000000000000, 1.000000000000000000, 0.000000000000000000 ) ) ;
#149 = ORIENTED_EDGE ( 'NONE', *, *, #666, .T. ) ;
#150 = ORIENTED_EDGE ( 'NONE', *, *, #322, .F. ) ;
#151 = ORIENTED_EDGE ( 'NONE', *, *, #814, .F. ) ;
#152 = DIRECTION ( 'NONE',  ( 0.000000000000000000, 0.000000000000000000, -1.000000000000000000 ) ) ;
#153 = DIRECTION ( 'NONE',  ( 1.000000000000000000, 0.000000000000000000, 0.000000000000000000 ) ) ;
#154 = AXIS2_PLACEMENT_3D ( 'NONE', #863, #1066, #957 ) ;
#155 = ORIENTED_EDGE ( 'NONE', *, *, #471, .F. ) ;
#156 = ORIENTED_EDGE ( 'NONE', *, *, #566, .T. ) ;
#157 = VECTOR ( 'NONE', #325, 1000.000000000000000 ) ;
#158 = VECTOR ( 'NONE', #1136, 1000.000000000000000 ) ;
#159 = CARTESIAN_POINT ( 'NONE',  ( -1.149999999999999911, 0.6500000000000000222, 0.8000000000000000444 ) ) ;
#160 = ADVANCED_FACE ( 'NONE', ( #496 ), #504, .F. ) ;
#161 = DIRECTION ( 'NONE',  ( 0.000000000000000000, 1.000000000000000000, 0.000000000000000000 ) ) ;
#162 = VERTEX_POINT ( 'NONE', #853 ) ;
#163 = ORIENTED_EDGE ( 'NONE', *, *, #650, .T. ) ;
#164 = VECTOR ( 'NONE', #773, 1000.000000000000000 ) ;
#165 = LINE ( 'NONE', #159, #774 ) ;
#166 = DIRECTION ( 'NONE',  ( 0.000000000000000000, 1.000000000000000000, 0.000000000000000000 ) ) ;
#167 = EDGE_CURVE ( 'NONE', #762, #1046, #309, .T. ) ;
#168 = ORIENTED_EDGE ( 'NONE', *, *, #368, .F. ) ;
#169 = LINE ( 'NONE', #918, #653 ) ;
#170 =( NAMED_UNIT ( * ) SI_UNIT ( $, .STERADIAN. ) SOLID_ANGLE_UNIT ( ) );
#171 = CARTESIAN_POINT ( 'NONE',  ( -1.517500000000000071, 0.6174999999999999378, -3.890865574559980278 ) ) ;
#172 = VECTOR ( 'NONE', #696, 1000.000000000000000 ) ;
#173 = CARTESIAN_POINT ( 'NONE',  ( 1.517500000000000071, 0.6174999999999999378, 0.8000000000000000444 ) ) ;
#174 = EDGE_CURVE ( 'NONE', #609, #261, #377, .T. ) ;
#175 = FACE_OUTER_BOUND ( 'NONE', #327, .T. ) ;
#176 = PLANE ( 'NONE',  #1089 ) ;
#177 = DIRECTION ( 'NONE',  ( -1.355252715606880543E-16, 0.000000000000000000, -1.000000000000000000 ) ) ;
#178 = ORIENTED_EDGE ( 'NONE', *, *, #167, .T. ) ;
#179 = EDGE_CURVE ( 'NONE', #1046, #162, #483, .T. ) ;
#180 = DIRECTION ( 'NONE',  ( 9.856383386231858827E-17, 1.000000000000000000, 0.000000000000000000 ) ) ;
#181 = VECTOR ( 'NONE', #201, 1000.000000000000000 ) ;
#182 = CARTESIAN_POINT ( 'NONE',  ( 1.310000000000000053, 0.6174999999999999378, -0.5333333333333328818 ) ) ;
#183 = ORIENTED_EDGE ( 'NONE', *, *, #252, .F. ) ;
#184 = AXIS2_PLACEMENT_3D ( 'NONE', #911, #630, #354 ) ;
#185 = VECTOR ( 'NONE', #652, 1000.000000000000000 ) ;
#186 = PLANE ( 'NONE',  #877 ) ;
#187 = PLANE ( 'NONE',  #362 ) ;
#188 = ORIENTED_EDGE ( 'NONE', *, *, #437, .F. ) ;
#189 = VECTOR ( 'NONE', #1137, 1000.000000000000000 ) ;
#190 = CARTESIAN_POINT ( 'NONE',  ( 1.517500000000000071, 0.6174999999999999378, 0.8000000000000000444 ) ) ;
#191 = PLANE ( 'NONE',  #682 ) ;
#192 = EDGE_CURVE ( 'NONE', #985, #1212, #821, .T. ) ;
#193 = CARTESIAN_POINT ( 'NONE',  ( -1.517500000000000071, 0.03249999999999999417, -3.890865574559980278 ) ) ;
#194 = FACE_OUTER_BOUND ( 'NONE', #546, .T. ) ;
#195 = CARTESIAN_POINT ( 'NONE',  ( -1.517500000000000071, 0.6174999999999999378, 0.8000000000000000444 ) ) ;
#196 = DIRECTION ( 'NONE',  ( 0.000000000000000000, -1.000000000000000000, 0.000000000000000000 ) ) ;
#197 = LINE ( 'NONE', #10, #364 ) ;
#198 = LINE ( 'NONE', #190, #1192 ) ;
#199 = ADVANCED_FACE ( 'NONE', ( #1206 ), #730, .F. ) ;
#200 = DIRECTION ( 'NONE',  ( 1.000000000000000000, 0.000000000000000000, 0.000000000000000000 ) ) ;
#201 = DIRECTION ( 'NONE',  ( 0.000000000000000000, -1.000000000000000000, 0.000000000000000000 ) ) ;
#202 = CARTESIAN_POINT ( 'NONE',  ( 1.149999999999999911, 0.6174999999999999378, 0.5333333333333328818 ) ) ;
#203 = LINE ( 'NONE', #686, #243 ) ;
#204 = ORIENTED_EDGE ( 'NONE', *, *, #1027, .T. ) ;
#205 = ORIENTED_EDGE ( 'NONE', *, *, #232, .T. ) ;
#206 = CARTESIAN_POINT ( 'NONE',  ( -1.550000000000000044, 0.6500000000000000222, 0.8000000000000000444 ) ) ;
#207 = AXIS2_PLACEMENT_3D ( 'NONE', #632, #270, #537 ) ;
#208 = ADVANCED_FACE ( 'NONE', ( #888 ), #263, .F. ) ;
#209 = CARTESIAN_POINT ( 'NONE',  ( 1.550000000000000044, 0.6500000000000000222, -0.8000000000000000444 ) ) ;
#210 =( NAMED_UNIT ( * ) SI_UNIT ( $, .STERADIAN. ) SOLID_ANGLE_UNIT ( ) );
#211 = CARTESIAN_POINT ( 'NONE',  ( -1.310000000000000053, 0.6500000000000000222, -0.8000000000000000444 ) ) ;
#212 = AXIS2_PLACEMENT_3D ( 'NONE', #1079, #880, #1069 ) ;
#213 = EDGE_LOOP ( 'NONE', ( #294, #412, #707, #972 ) ) ;
#214 = DIRECTION ( 'NONE',  ( 0.000000000000000000, 0.000000000000000000, 1.000000000000000000 ) ) ;
#215 = EDGE_CURVE ( 'NONE', #345, #710, #324, .T. ) ;
#216 = FACE_OUTER_BOUND ( 'NONE', #758, .T. ) ;
#217 = CARTESIAN_POINT ( 'NONE',  ( 1.310000000000000053, 0.6500000000000000222, 0.8000000000000000444 ) ) ;
#218 = VECTOR ( 'NONE', #271, 1000.000000000000000 ) ;
#219 = DIRECTION ( 'NONE',  ( 0.000000000000000000, 1.000000000000000000, 0.000000000000000000 ) ) ;
#220 = CARTESIAN_POINT ( 'NONE',  ( 1.517500000000000071, 0.03249999999999999417, -0.8000000000000000444 ) ) ;
#221 = ORIENTED_EDGE ( 'NONE', *, *, #105, .F. ) ;
#222 = ORIENTED_EDGE ( 'NONE', *, *, #1189, .T. ) ;
#223 = VECTOR ( 'NONE', #663, 1000.000000000000000 ) ;
#224 = ADVANCED_FACE ( 'NONE', ( #254 ), #176, .F. ) ;
#225 = DIRECTION ( 'NONE',  ( 0.000000000000000000, -1.000000000000000000, 0.000000000000000000 ) ) ;
#226 = CARTESIAN_POINT ( 'NONE',  ( -1.550000000000000044, -1.898202538678395240E-16, 0.8000000000000000444 ) ) ;
#227 = ORIENTED_EDGE ( 'NONE', *, *, #368, .T. ) ;
#228 = ORIENTED_EDGE ( 'NONE', *, *, #728, .F. ) ;
#229 = LINE ( 'NONE', #508, #417 ) ;
#230 = CARTESIAN_POINT ( 'NONE',  ( -1.517500000000000071, 0.03249999999999999417, 0.8000000000000000444 ) ) ;
#231 = FACE_OUTER_BOUND ( 'NONE', #1142, .T. ) ;
#232 = EDGE_CURVE ( 'NONE', #1191, #404, #165, .T. ) ;
#233 = ORIENTED_EDGE ( 'NONE', *, *, #1199, .T. ) ;
#234 = ORIENTED_EDGE ( 'NONE', *, *, #374, .T. ) ;
#235 = FACE_OUTER_BOUND ( 'NONE', #603, .T. ) ;
#236 = ADVANCED_FACE ( 'NONE', ( #983 ), #342, .T. ) ;
#237 = VECTOR ( 'NONE', #765, 1000.000000000000000 ) ;
#238 = VERTEX_POINT ( 'NONE', #77 ) ;
#239 = APPLICATION_PROTOCOL_DEFINITION ( 'draft international standard', 'automotive_design', 1998, #357 ) ;
#240 = STYLED_ITEM ( 'NONE', ( #426 ), #914 ) ;
#241 = CARTESIAN_POINT ( 'NONE',  ( -1.099999999999999645, 0.6174999999999999378, 0.5333333333333328818 ) ) ;
#242 = VECTOR ( 'NONE', #536, 1000.000000000000000 ) ;
#243 = VECTOR ( 'NONE', #1058, 1000.000000000000000 ) ;
#244 = ORIENTED_EDGE ( 'NONE', *, *, #1098, .F. ) ;
#245 = DIRECTION ( 'NONE',  ( 0.000000000000000000, -1.000000000000000000, 0.000000000000000000 ) ) ;
#246 = EDGE_CURVE ( 'NONE', #966, #917, #44, .T. ) ;
#247 = AXIS2_PLACEMENT_3D ( 'NONE', #740, #1113, #817 ) ;
#248 = ORIENTED_EDGE ( 'NONE', *, *, #452, .F. ) ;
#249 = ORIENTED_EDGE ( 'NONE', *, *, #575, .T. ) ;
#250 = DIRECTION ( 'NONE',  ( 0.000000000000000000, 0.000000000000000000, 1.000000000000000000 ) ) ;
#251 = MECHANICAL_DESIGN_GEOMETRIC_PRESENTATION_REPRESENTATION (  '', ( #561 ), #844 ) ;
#252 = EDGE_CURVE ( 'NONE', #917, #117, #547, .T. ) ;
#253 = DIRECTION ( 'NONE',  ( 0.000000000000000000, 0.000000000000000000, -1.000000000000000000 ) ) ;
#254 = FACE_OUTER_BOUND ( 'NONE', #516, .T. ) ;
#255 = EDGE_CURVE ( 'NONE', #1143, #1067, #258, .T. ) ;
#256 = DIRECTION ( 'NONE',  ( 0.000000000000000000, 1.000000000000000000, 0.000000000000000000 ) ) ;
#257 = ORIENTED_EDGE ( 'NONE', *, *, #551, .F. ) ;
#258 = LINE ( 'NONE', #1097, #621 ) ;
#259 = FACE_OUTER_BOUND ( 'NONE', #883, .T. ) ;
#260 = EDGE_CURVE ( 'NONE', #1173, #238, #316, .T. ) ;
#261 = VERTEX_POINT ( 'NONE', #1200 ) ;
#262 = DIRECTION ( 'NONE',  ( 9.856383386231858827E-17, 1.000000000000000000, 0.000000000000000000 ) ) ;
#263 = PLANE ( 'NONE',  #615 ) ;
#264 = LINE ( 'NONE', #1201, #942 ) ;
#265 = ORIENTED_EDGE ( 'NONE', *, *, #192, .F. ) ;
#266 = ADVANCED_FACE ( 'NONE', ( #231 ), #697, .F. ) ;
#267 = DIRECTION ( 'NONE',  ( 0.000000000000000000, 0.000000000000000000, -1.000000000000000000 ) ) ;
#268 = VERTEX_POINT ( 'NONE', #461 ) ;
#269 = VECTOR ( 'NONE', #1036, 1000.000000000000000 ) ;
#270 = DIRECTION ( 'NONE',  ( 1.000000000000000000, 0.000000000000000000, 0.000000000000000000 ) ) ;
#271 = DIRECTION ( 'NONE',  ( 1.000000000000000000, 4.745506346695990935E-16, 0.000000000000000000 ) ) ;
#272 = CARTESIAN_POINT ( 'NONE',  ( -1.550000000000000044, 0.6500000000000000222, 0.8000000000000000444 ) ) ;
#273 = ORIENTED_EDGE ( 'NONE', *, *, #1177, .F. ) ;
#274 = CARTESIAN_POINT ( 'NONE',  ( -1.099999999999999645, 0.6174999999999999378, -0.5333333333333328818 ) ) ;
#275 = AXIS2_PLACEMENT_3D ( 'NONE', #766, #485, #859 ) ;
#276 = FACE_OUTER_BOUND ( 'NONE', #554, .T. ) ;
#277 = ADVANCED_FACE ( 'NONE', ( #447 ), #816, .F. ) ;
#278 = DIRECTION ( 'NONE',  ( 1.000000000000000000, 0.000000000000000000, 0.000000000000000000 ) ) ;
#279 = LINE ( 'NONE', #539, #64 ) ;
#280 = CARTESIAN_POINT ( 'NONE',  ( -1.310000000000000053, 0.6174999999999999378, -0.8000000000000000444 ) ) ;
#281 = ORIENTED_EDGE ( 'NONE', *, *, #760, .F. ) ;
#282 = DIRECTION ( 'NONE',  ( -1.000000000000000000, 0.000000000000000000, 0.000000000000000000 ) ) ;
#283 = CARTESIAN_POINT ( 'NONE',  ( -1.149999999999999911, 0.03249999999999999417, -0.8000000000000000444 ) ) ;
#284 = SURFACE_STYLE_USAGE ( .BOTH. , #951 ) ;
#285 = ORIENTED_EDGE ( 'NONE', *, *, #927, .T. ) ;
#286 = FACE_OUTER_BOUND ( 'NONE', #871, .T. ) ;
#287 = VECTOR ( 'NONE', #690, 1000.000000000000000 ) ;
#288 = FACE_OUTER_BOUND ( 'NONE', #1135, .T. ) ;
#289 = PRESENTATION_LAYER_ASSIGNMENT (  '', '', ( #240 ) ) ;
#290 = CARTESIAN_POINT ( 'NONE',  ( 1.099999999999999645, 0.6174999999999999378, -0.5333333333333328818 ) ) ;
#291 = PRESENTATION_STYLE_ASSIGNMENT (( #284 ) ) ;
#292 = EDGE_CURVE ( 'NONE', #777, #1212, #922, .T. ) ;
#293 = CARTESIAN_POINT ( 'NONE',  ( -1.149999999999999911, 0.03249999999999999417, 0.8000000000000000444 ) ) ;
#294 = ORIENTED_EDGE ( 'NONE', *, *, #179, .F. ) ;
#295 = ORIENTED_EDGE ( 'NONE', *, *, #1098, .T. ) ;
#296 = CARTESIAN_POINT ( 'NONE',  ( -1.099999999999999867, 0.6174999999999999378, -0.8000000000000000444 ) ) ;
#297 = FACE_OUTER_BOUND ( 'NONE', #522, .T. ) ;
#298 = DIRECTION ( 'NONE',  ( 9.856383386231858827E-17, 1.000000000000000000, 0.000000000000000000 ) ) ;
#299 = DIRECTION ( 'NONE',  ( 1.000000000000000000, 0.000000000000000000, 0.000000000000000000 ) ) ;
#300 = DIRECTION ( 'NONE',  ( -1.000000000000000000, 0.000000000000000000, 0.000000000000000000 ) ) ;
#301 = ORIENTED_EDGE ( 'NONE', *, *, #1125, .F. ) ;
#302 = VERTEX_POINT ( 'NONE', #689 ) ;
#303 = CARTESIAN_POINT ( 'NONE',  ( 1.149999999999999911, 0.03249999999999999417, 0.8000000000000000444 ) ) ;
#304 = EDGE_CURVE ( 'NONE', #909, #903, #1170, .T. ) ;
#305 = VECTOR ( 'NONE', #8, 1000.000000000000000 ) ;
#306 = LINE ( 'NONE', #688, #514 ) ;
#307 = CARTESIAN_POINT ( 'NONE',  ( 1.550000000000000044, 0.6500000000000000222, 0.8000000000000000444 ) ) ;
#308 = VECTOR ( 'NONE', #343, 1000.000000000000000 ) ;
#309 = LINE ( 'NONE', #9, #181 ) ;
#310 = CARTESIAN_POINT ( 'NONE',  ( -1.517500000000000071, 0.6174999999999999378, -0.8000000000000000444 ) ) ;
#311 = AXIS2_PLACEMENT_3D ( 'NONE', #1042, #118, #960 ) ;
#312 = ORIENTED_EDGE ( 'NONE', *, *, #527, .F. ) ;
#313 = EDGE_LOOP ( 'NONE', ( #228, #1073, #818, #819, #273, #530, #580, #1175 ) ) ;
#314 = CARTESIAN_POINT ( 'NONE',  ( -1.517500000000000071, 0.6174999999999999378, 0.8000000000000000444 ) ) ;
#315 = PRESENTATION_LAYER_ASSIGNMENT (  '', '', ( #1063 ) ) ;
#316 = LINE ( 'NONE', #933, #242 ) ;
#317 = LINE ( 'NONE', #509, #687 ) ;
#318 = VERTEX_POINT ( 'NONE', #333 ) ;
#319 = ORIENTED_EDGE ( 'NONE', *, *, #855, .F. ) ;
#320 = CARTESIAN_POINT ( 'NONE',  ( -1.517500000000000071, 0.6174999999999999378, -3.890865574559980278 ) ) ;
#321 = DIRECTION ( 'NONE',  ( 0.000000000000000000, 1.000000000000000000, 0.000000000000000000 ) ) ;
#322 = EDGE_CURVE ( 'NONE', #132, #1081, #1188, .T. ) ;
#323 = CARTESIAN_POINT ( 'NONE',  ( -1.149999999999999911, 0.03249999999999999417, 0.8000000000000000444 ) ) ;
#324 = LINE ( 'NONE', #828, #1025 ) ;
#325 = DIRECTION ( 'NONE',  ( 1.000000000000000000, 0.000000000000000000, 0.000000000000000000 ) ) ;
#326 = ORIENTED_EDGE ( 'NONE', *, *, #1138, .T. ) ;
#327 = EDGE_LOOP ( 'NONE', ( #612, #910, #351, #947 ) ) ;
#328 = ORIENTED_EDGE ( 'NONE', *, *, #1065, .F. ) ;
#329 = DIRECTION ( 'NONE',  ( 0.000000000000000000, 0.000000000000000000, 1.000000000000000000 ) ) ;
#330 = ORIENTED_EDGE ( 'NONE', *, *, #428, .T. ) ;
#331 = ORIENTED_EDGE ( 'NONE', *, *, #21, .T. ) ;
#332 = ORIENTED_EDGE ( 'NONE', *, *, #1027, .F. ) ;
#333 = CARTESIAN_POINT ( 'NONE',  ( -1.310000000000000053, 0.6174999999999999378, 0.8000000000000000444 ) ) ;
#334 = UNCERTAINTY_MEASURE_WITH_UNIT (LENGTH_MEASURE( 1.000000000000000082E-05 ), #16, 'distance_accuracy_value', 'NONE');
#335 = ORIENTED_EDGE ( 'NONE', *, *, #1125, .T. ) ;
#336 = EDGE_CURVE ( 'NONE', #1143, #1173, #887, .T. ) ;
#337 = VECTOR ( 'NONE', #300, 1000.000000000000000 ) ;
#338 = VERTEX_POINT ( 'NONE', #217 ) ;
#339 = EDGE_CURVE ( 'NONE', #966, #494, #976, .T. ) ;
#340 = DIRECTION ( 'NONE',  ( -1.000000000000000000, 0.000000000000000000, 0.000000000000000000 ) ) ;
#341 = ADVANCED_FACE ( 'NONE', ( #235 ), #502, .F. ) ;
#342 = PLANE ( 'NONE',  #723 ) ;
#343 = DIRECTION ( 'NONE',  ( -1.000000000000000000, 0.000000000000000000, 0.000000000000000000 ) ) ;
#344 = VERTEX_POINT ( 'NONE', #982 ) ;
#345 = VERTEX_POINT ( 'NONE', #794 ) ;
#346 = DIRECTION ( 'NONE',  ( 1.000000000000000000, -9.856383386231858827E-17, 0.000000000000000000 ) ) ;
#347 = LINE ( 'NONE', #638, #513 ) ;
#348 = ADVANCED_FACE ( 'NONE', ( #127 ), #1071, .F. ) ;
#349 = FACE_OUTER_BOUND ( 'NONE', #413, .T. ) ;
#350 = ORIENTED_EDGE ( 'NONE', *, *, #893, .F. ) ;
#351 = ORIENTED_EDGE ( 'NONE', *, *, #704, .T. ) ;
#352 = PRESENTATION_LAYER_ASSIGNMENT (  '', '', ( #739 ) ) ;
#353 = CARTESIAN_POINT ( 'NONE',  ( 0.000000000000000000, 0.000000000000000000, -0.8000000000000000444 ) ) ;
#354 = DIRECTION ( 'NONE',  ( 0.000000000000000000, 0.000000000000000000, 1.000000000000000000 ) ) ;
#355 = EDGE_CURVE ( 'NONE', #344, #884, #526, .T. ) ;
#356 = CARTESIAN_POINT ( 'NONE',  ( 1.517500000000000071, 0.03249999999999999417, -3.890865574559980278 ) ) ;
#357 = APPLICATION_CONTEXT ( 'automotive_design' ) ;
#358 = LINE ( 'NONE', #466, #475 ) ;
#359 = PRESENTATION_STYLE_ASSIGNMENT (( #1103 ) ) ;
#360 = ORIENTED_EDGE ( 'NONE', *, *, #1033, .T. ) ;
#361 = PLANE ( 'NONE',  #247 ) ;
#362 = AXIS2_PLACEMENT_3D ( 'NONE', #14, #1037, #388 ) ;
#363 = LINE ( 'NONE', #1203, #218 ) ;
#364 = VECTOR ( 'NONE', #140, 1000.000000000000000 ) ;
#365 = DIRECTION ( 'NONE',  ( 1.000000000000000000, -9.427844978134818968E-17, -1.355252715606880543E-16 ) ) ;
#366 = PLANE ( 'NONE',  #1167 ) ;
#367 = FACE_OUTER_BOUND ( 'NONE', #986, .T. ) ;
#368 = EDGE_CURVE ( 'NONE', #162, #1196, #900, .T. ) ;
#369 = COLOUR_RGB ( '',0.1019607843137254888, 0.1019607843137254888, 0.1019607843137254888 ) ;
#370 = PLANE ( 'NONE',  #597 ) ;
#371 = DIRECTION ( 'NONE',  ( 0.000000000000000000, 0.000000000000000000, 1.000000000000000000 ) ) ;
#372 = LINE ( 'NONE', #738, #752 ) ;
#373 = LINE ( 'NONE', #206, #223 ) ;
#374 = EDGE_CURVE ( 'NONE', #344, #823, #1064, .T. ) ;
#375 = AXIS2_PLACEMENT_3D ( 'NONE', #416, #153, #321 ) ;
#376 = CARTESIAN_POINT ( 'NONE',  ( 1.517500000000000071, 0.6174999999999999378, 0.8000000000000000444 ) ) ;
#377 = LINE ( 'NONE', #107, #287 ) ;
#378 = DIRECTION ( 'NONE',  ( 0.000000000000000000, 0.000000000000000000, -1.000000000000000000 ) ) ;
#379 = ORIENTED_EDGE ( 'NONE', *, *, #610, .T. ) ;
#380 = LINE ( 'NONE', #387, #158 ) ;
#381 = EDGE_CURVE ( 'NONE', #268, #318, #789, .T. ) ;
#382 = FACE_OUTER_BOUND ( 'NONE', #904, .T. ) ;
#383 = LINE ( 'NONE', #1039, #59 ) ;
#384 = LINE ( 'NONE', #293, #442 ) ;
#385 = ORIENTED_EDGE ( 'NONE', *, *, #292, .F. ) ;
#386 = VERTEX_POINT ( 'NONE', #434 ) ;
#387 = CARTESIAN_POINT ( 'NONE',  ( 1.149999999999999911, 0.03249999999999999417, 0.8000000000000000444 ) ) ;
#388 = DIRECTION ( 'NONE',  ( 1.000000000000000000, 0.000000000000000000, 0.000000000000000000 ) ) ;
#389 = VECTOR ( 'NONE', #981, 1000.000000000000000 ) ;
#390 = ADVANCED_FACE ( 'NONE', ( #614 ), #408, .T. ) ;
#391 = UNCERTAINTY_MEASURE_WITH_UNIT (LENGTH_MEASURE( 1.000000000000000082E-05 ), #636, 'distance_accuracy_value', 'NONE');
#392 = CARTESIAN_POINT ( 'NONE',  ( 1.099999999999999645, 0.6500000000000000222, -0.5333333333333328818 ) ) ;
#393 = LINE ( 'NONE', #280, #39 ) ;
#394 = PLANE ( 'NONE',  #275 ) ;
#395 = ORIENTED_EDGE ( 'NONE', *, *, #1189, .F. ) ;
#396 = ORIENTED_EDGE ( 'NONE', *, *, #915, .T. ) ;
#397 = LINE ( 'NONE', #1144, #824 ) ;
#398 = VECTOR ( 'NONE', #1072, 1000.000000000000000 ) ;
#399 = AXIS2_PLACEMENT_3D ( 'NONE', #846, #253, #1 ) ;
#400 = PLANE ( 'NONE',  #48 ) ;
#401 = CARTESIAN_POINT ( 'NONE',  ( 1.149999999999999911, 0.03249999999999999417, 0.8000000000000000444 ) ) ;
#402 = SURFACE_STYLE_USAGE ( .BOTH. , #790 ) ;
#403 = SURFACE_STYLE_FILL_AREA ( #102 ) ;
#404 = VERTEX_POINT ( 'NONE', #55 ) ;
#405 = ORIENTED_EDGE ( 'NONE', *, *, #437, .T. ) ;
#406 = FILL_AREA_STYLE_COLOUR ( '', #490 ) ;
#407 = VECTOR ( 'NONE', #822, 1000.000000000000000 ) ;
#408 = PLANE ( 'NONE',  #1105 ) ;
#409 = PRESENTATION_LAYER_ASSIGNMENT (  '', '', ( #561 ) ) ;
#410 = LINE ( 'NONE', #660, #164 ) ;
#411 = VECTOR ( 'NONE', #214, 1000.000000000000000 ) ;
#412 = ORIENTED_EDGE ( 'NONE', *, *, #1159, .F. ) ;
#413 = EDGE_LOOP ( 'NONE', ( #899, #979, #797, #534 ) ) ;
#414 = ADVANCED_FACE ( 'NONE', ( #512 ), #799, .F. ) ;
#415 = SURFACE_STYLE_USAGE ( .BOTH. , #905 ) ;
#416 = CARTESIAN_POINT ( 'NONE',  ( 1.149999999999999911, 0.03249999999999999417, 0.8000000000000000444 ) ) ;
#417 = VECTOR ( 'NONE', #987, 1000.000000000000000 ) ;
#418 = ORIENTED_EDGE ( 'NONE', *, *, #138, .T. ) ;
#419 = ORIENTED_EDGE ( 'NONE', *, *, #893, .T. ) ;
#420 = PRODUCT_DEFINITION ( 'UNKNOWN', '', #664, #101 ) ;
#421 = DIRECTION ( 'NONE',  ( -1.000000000000000000, 4.745506346695990935E-16, 0.000000000000000000 ) ) ;
#422 = ADVANCED_FACE ( 'NONE', ( #711 ), #1077, .T. ) ;
#423 = ORIENTED_EDGE ( 'NONE', *, *, #445, .F. ) ;
#424 = ORIENTED_EDGE ( 'NONE', *, *, #639, .F. ) ;
#425 = DIRECTION ( 'NONE',  ( 0.000000000000000000, 0.000000000000000000, -1.000000000000000000 ) ) ;
#426 = PRESENTATION_STYLE_ASSIGNMENT (( #415 ) ) ;
#427 = DIRECTION ( 'NONE',  ( 0.000000000000000000, 0.000000000000000000, 1.000000000000000000 ) ) ;
#428 = EDGE_CURVE ( 'NONE', #110, #404, #347, .T. ) ;
#429 = EDGE_LOOP ( 'NONE', ( #150, #350, #521, #116 ) ) ;
#430 = MECHANICAL_DESIGN_GEOMETRIC_PRESENTATION_REPRESENTATION (  '', ( #1099 ), #114 ) ;
#431 = VERTEX_POINT ( 'NONE', #743 ) ;
#432 = FILL_AREA_STYLE ('',( #406 ) ) ;
#433 = ORIENTED_EDGE ( 'NONE', *, *, #489, .T. ) ;
#434 = CARTESIAN_POINT ( 'NONE',  ( 1.099999999999999867, 0.6174999999999998268, 0.8000000000000000444 ) ) ;
#435 = LINE ( 'NONE', #1172, #157 ) ;
#436 = VECTOR ( 'NONE', #649, 1000.000000000000000 ) ;
#437 = EDGE_CURVE ( 'NONE', #594, #498, #1114, .T. ) ;
#438 = ORIENTED_EDGE ( 'NONE', *, *, #355, .F. ) ;
#439 = ORIENTED_EDGE ( 'NONE', *, *, #1210, .T. ) ;
#440 = CARTESIAN_POINT ( 'NONE',  ( 1.517500000000000071, 0.03249999999999999417, 0.8000000000000000444 ) ) ;
#441 = PLANE ( 'NONE',  #783 ) ;
#442 = VECTOR ( 'NONE', #667, 1000.000000000000000 ) ;
#443 = VERTEX_POINT ( 'NONE', #108 ) ;
#444 = DIRECTION ( 'NONE',  ( 1.000000000000000000, 0.000000000000000000, 0.000000000000000000 ) ) ;
#445 = EDGE_CURVE ( 'NONE', #1179, #1196, #965, .T. ) ;
#446 = DIRECTION ( 'NONE',  ( 1.000000000000000000, 0.000000000000000000, 0.000000000000000000 ) ) ;
#447 = FACE_OUTER_BOUND ( 'NONE', #725, .T. ) ;
#448 = CARTESIAN_POINT ( 'NONE',  ( -1.310000000000000053, 0.6500000000000000222, 0.8000000000000000444 ) ) ;
#449 = DIRECTION ( 'NONE',  ( 0.000000000000000000, 0.000000000000000000, -1.000000000000000000 ) ) ;
#450 = ORIENTED_EDGE ( 'NONE', *, *, #575, .F. ) ;
#451 = DIRECTION ( 'NONE',  ( 0.000000000000000000, -1.000000000000000000, 0.000000000000000000 ) ) ;
#452 = EDGE_CURVE ( 'NONE', #995, #1068, #1130, .T. ) ;
#453 =( NAMED_UNIT ( * ) PLANE_ANGLE_UNIT ( ) SI_UNIT ( $, .RADIAN. ) );
#454 = DIRECTION ( 'NONE',  ( 1.000000000000000000, -9.856383386231858827E-17, 0.000000000000000000 ) ) ;
#455 = PLANE ( 'NONE',  #468 ) ;
#456 = ORIENTED_EDGE ( 'NONE', *, *, #215, .F. ) ;
#457 = VECTOR ( 'NONE', #219, 1000.000000000000000 ) ;
#458 = VERTEX_POINT ( 'NONE', #32 ) ;
#459 = MECHANICAL_DESIGN_GEOMETRIC_PRESENTATION_REPRESENTATION (  '', ( #739 ), #935 ) ;
#460 = FACE_OUTER_BOUND ( 'NONE', #38, .T. ) ;
#461 = CARTESIAN_POINT ( 'NONE',  ( -1.310000000000000053, 0.6174999999999999378, 0.5333333333333328818 ) ) ;
#462 = CARTESIAN_POINT ( 'NONE',  ( -1.149999999999999911, 0.000000000000000000, 0.8000000000000000444 ) ) ;
#463 = CARTESIAN_POINT ( 'NONE',  ( 1.149999999999999911, 0.6500000000000000222, -0.5333333333333328818 ) ) ;
#464 = AXIS2_PLACEMENT_3D ( 'NONE', #764, #93, #658 ) ;
#465 = EDGE_CURVE ( 'NONE', #498, #345, #393, .T. ) ;
#466 = CARTESIAN_POINT ( 'NONE',  ( -1.517500000000000071, 0.03249999999999999417, -0.8000000000000000444 ) ) ;
#467 = DIRECTION ( 'NONE',  ( -1.000000000000000000, 0.000000000000000000, 0.000000000000000000 ) ) ;
#468 = AXIS2_PLACEMENT_3D ( 'NONE', #731, #365, #177 ) ;
#469 = FACE_OUTER_BOUND ( 'NONE', #1090, .T. ) ;
#470 = CARTESIAN_POINT ( 'NONE',  ( 1.149999999999999911, 0.6174999999999999378, -0.5333333333333328818 ) ) ;
#471 = EDGE_CURVE ( 'NONE', #117, #1074, #383, .T. ) ;
#472 = ORIENTED_EDGE ( 'NONE', *, *, #304, .F. ) ;
#473 = EDGE_CURVE ( 'NONE', #1190, #431, #681, .T. ) ;
#474 = DIRECTION ( 'NONE',  ( 0.000000000000000000, 1.000000000000000000, 0.000000000000000000 ) ) ;
#475 = VECTOR ( 'NONE', #1223, 1000.000000000000000 ) ;
#476 = LINE ( 'NONE', #557, #189 ) ;
#477 = FILL_AREA_STYLE_COLOUR ( '', #369 ) ;
#478 = CARTESIAN_POINT ( 'NONE',  ( -1.310000000000000053, 0.6174999999999999378, -0.8000000000000000444 ) ) ;
#479 = ORIENTED_EDGE ( 'NONE', *, *, #322, .T. ) ;
#480 = DIRECTION ( 'NONE',  ( 0.000000000000000000, 0.000000000000000000, -1.000000000000000000 ) ) ;
#481 = EDGE_CURVE ( 'NONE', #338, #779, #24, .T. ) ;
#482 = DIRECTION ( 'NONE',  ( 0.000000000000000000, 1.000000000000000000, 0.000000000000000000 ) ) ;
#483 = LINE ( 'NONE', #578, #81 ) ;
#484 = DIRECTION ( 'NONE',  ( 1.000000000000000000, 0.000000000000000000, 0.000000000000000000 ) ) ;
#485 = DIRECTION ( 'NONE',  ( -1.000000000000000000, 0.000000000000000000, 0.000000000000000000 ) ) ;
#486 = ORIENTED_EDGE ( 'NONE', *, *, #1224, .T. ) ;
#487 = VERTEX_POINT ( 'NONE', #775 ) ;
#488 = CARTESIAN_POINT ( 'NONE',  ( 1.310000000000000053, 0.6174999999999999378, -0.8000000000000000444 ) ) ;
#489 = EDGE_CURVE ( 'NONE', #535, #710, #876, .T. ) ;
#490 = COLOUR_RGB ( '',0.8000000000000000444, 0.8078431372549019773, 0.8000000000000000444 ) ;
#491 = DIRECTION ( 'NONE',  ( 0.000000000000000000, 0.000000000000000000, -1.000000000000000000 ) ) ;
#492 = CARTESIAN_POINT ( 'NONE',  ( -1.550000000000000044, 0.6500000000000000222, -0.8000000000000000444 ) ) ;
#493 = ORIENTED_EDGE ( 'NONE', *, *, #1119, .T. ) ;
#494 = VERTEX_POINT ( 'NONE', #220 ) ;
#495 = CARTESIAN_POINT ( 'NONE',  ( -1.149999999999999911, 0.6174999999999999378, -0.5333333333333328818 ) ) ;
#496 = FACE_OUTER_BOUND ( 'NONE', #79, .T. ) ;
#497 = DIRECTION ( 'NONE',  ( 0.000000000000000000, 0.000000000000000000, 1.000000000000000000 ) ) ;
#498 = VERTEX_POINT ( 'NONE', #478 ) ;
#499 = ORIENTED_EDGE ( 'NONE', *, *, #1177, .T. ) ;
#500 =( NAMED_UNIT ( * ) SI_UNIT ( $, .STERADIAN. ) SOLID_ANGLE_UNIT ( ) );
#501 = AXIS2_PLACEMENT_3D ( 'NONE', #744, #346, #550 ) ;
#502 = PLANE ( 'NONE',  #375 ) ;
#503 = MANIFOLD_SOLID_BREP ( 'NONE', #98 ) ;
#504 = PLANE ( 'NONE',  #141 ) ;
#505 = EDGE_CURVE ( 'NONE', #318, #487, #691, .T. ) ;
#506 = ORIENTED_EDGE ( 'NONE', *, *, #776, .F. ) ;
#507 = ORIENTED_EDGE ( 'NONE', *, *, #1033, .F. ) ;
#508 = CARTESIAN_POINT ( 'NONE',  ( 1.099999999999999645, 0.6174999999999999378, -0.5333333333333328818 ) ) ;
#509 = CARTESIAN_POINT ( 'NONE',  ( 1.149999999999999911, 0.6174999999999999378, -0.5333333333333328818 ) ) ;
#510 = EDGE_LOOP ( 'NONE', ( #295, #573, #567, #145, #768, #586, #683, #234 ) ) ;
#511 = EDGE_LOOP ( 'NONE', ( #1116, #529, #1198, #60 ) ) ;
#512 = FACE_OUTER_BOUND ( 'NONE', #892, .T. ) ;
#513 = VECTOR ( 'NONE', #929, 1000.000000000000000 ) ;
#514 = VECTOR ( 'NONE', #949, 1000.000000000000000 ) ;
#515 = ORIENTED_EDGE ( 'NONE', *, *, #68, .T. ) ;
#516 = EDGE_LOOP ( 'NONE', ( #993, #1174, #860, #737 ) ) ;
#517 = PRESENTATION_STYLE_ASSIGNMENT (( #699 ) ) ;
#518 = ADVANCED_FACE ( 'NONE', ( #194 ), #565, .F. ) ;
#519 = CARTESIAN_POINT ( 'NONE',  ( -1.099999999999999645, 0.6174999999999999378, -0.5333333333333328818 ) ) ;
#520 = DIRECTION ( 'NONE',  ( -1.000000000000000000, 0.000000000000000000, 0.000000000000000000 ) ) ;
#521 = ORIENTED_EDGE ( 'NONE', *, *, #95, .T. ) ;
#522 = EDGE_LOOP ( 'NONE', ( #25, #57, #257, #419 ) ) ;
#523 = ORIENTED_EDGE ( 'NONE', *, *, #489, .F. ) ;
#524 = AXIS2_PLACEMENT_3D ( 'NONE', #173, #665, #755 ) ;
#525 = FILL_AREA_STYLE_COLOUR ( '', #1106 ) ;
#526 = LINE ( 'NONE', #61, #703 ) ;
#527 = EDGE_CURVE ( 'NONE', #1212, #995, #197, .T. ) ;
#528 = COLOUR_RGB ( '',0.8000000000000000444, 0.8078431372549019773, 0.8000000000000000444 ) ;
#529 = ORIENTED_EDGE ( 'NONE', *, *, #452, .T. ) ;
#530 = ORIENTED_EDGE ( 'NONE', *, *, #719, .F. ) ;
#531 = DIRECTION ( 'NONE',  ( 1.000000000000000000, -9.427844978134828829E-17, 0.000000000000000000 ) ) ;
#532 = LINE ( 'NONE', #356, #1152 ) ;
#533 = VECTOR ( 'NONE', #451, 1000.000000000000000 ) ;
#534 = ORIENTED_EDGE ( 'NONE', *, *, #252, .T. ) ;
#535 = VERTEX_POINT ( 'NONE', #796 ) ;
#536 = DIRECTION ( 'NONE',  ( -1.000000000000000000, 0.000000000000000000, 0.000000000000000000 ) ) ;
#537 = DIRECTION ( 'NONE',  ( 0.000000000000000000, 1.000000000000000000, 0.000000000000000000 ) ) ;
#538 = ORIENTED_EDGE ( 'NONE', *, *, #174, .F. ) ;
#539 = CARTESIAN_POINT ( 'NONE',  ( -1.099999999999999645, 0.6500000000000000222, -0.5333333333333328818 ) ) ;
#540 = EDGE_CURVE ( 'NONE', #66, #34, #1087, .T. ) ;
#541 = VECTOR ( 'NONE', #805, 1000.000000000000000 ) ;
#542 = CARTESIAN_POINT ( 'NONE',  ( -1.517500000000000071, 0.03249999999999999417, -0.8000000000000000444 ) ) ;
#543 = CARTESIAN_POINT ( 'NONE',  ( 6.128099235787630542E-17, 0.6500000000000000222, -8.305123130809638990E-33 ) ) ;
#544 = CARTESIAN_POINT ( 'NONE',  ( 1.149999999999999911, 0.6500000000000000222, 0.5333333333333328818 ) ) ;
#545 = EDGE_LOOP ( 'NONE', ( #265, #19, #954, #312 ) ) ;
#546 = EDGE_LOOP ( 'NONE', ( #156, #221, #605, #1156 ) ) ;
#547 = LINE ( 'NONE', #1104, #398 ) ;
#548 = DIRECTION ( 'NONE',  ( 1.000000000000000000, 4.745506346695990935E-16, 0.000000000000000000 ) ) ;
#549 = DIRECTION ( 'NONE',  ( -1.355252715606880543E-16, -0.000000000000000000, -1.000000000000000000 ) ) ;
#550 = DIRECTION ( 'NONE',  ( -9.856383386231858827E-17, -1.000000000000000000, 0.000000000000000000 ) ) ;
#551 = EDGE_CURVE ( 'NONE', #936, #624, #317, .T. ) ;
#552 = LINE ( 'NONE', #463, #1157 ) ;
#553 = VECTOR ( 'NONE', #467, 1000.000000000000000 ) ;
#554 = EDGE_LOOP ( 'NONE', ( #433, #456, #63, #418 ) ) ;
#555 = PLANE ( 'NONE',  #1028 ) ;
#556 = EDGE_CURVE ( 'NONE', #715, #916, #435, .T. ) ;
#557 = CARTESIAN_POINT ( 'NONE',  ( -1.149999999999999911, 0.6500000000000000222, -0.8000000000000000444 ) ) ;
#558 = VECTOR ( 'NONE', #482, 1000.000000000000000 ) ;
#559 = LINE ( 'NONE', #848, #1121 ) ;
#560 = DIRECTION ( 'NONE',  ( 9.427844978134818968E-17, 1.000000000000000000, -1.277711250893790151E-32 ) ) ;
#561 = STYLED_ITEM ( 'NONE', ( #291 ), #503 ) ;
#562 = CARTESIAN_POINT ( 'NONE',  ( -1.517500000000000071, 0.6174999999999999378, 0.8000000000000000444 ) ) ;
#563 = DIRECTION ( 'NONE',  ( -1.000000000000000000, 0.000000000000000000, 0.000000000000000000 ) ) ;
#564 = PLANE ( 'NONE',  #717 ) ;
#565 = PLANE ( 'NONE',  #946 ) ;
#566 = EDGE_CURVE ( 'NONE', #779, #1081, #706, .T. ) ;
#567 = ORIENTED_EDGE ( 'NONE', *, *, #82, .T. ) ;
#568 = CARTESIAN_POINT ( 'NONE',  ( -1.149999999999999911, 0.03249999999999999417, -0.8000000000000000444 ) ) ;
#569 = AXIS2_PLACEMENT_3D ( 'NONE', #147, #520, #427 ) ;
#570 = VECTOR ( 'NONE', #340, 1000.000000000000000 ) ;
#571 = PLANE ( 'NONE',  #746 ) ;
#572 = DIRECTION ( 'NONE',  ( 0.000000000000000000, 0.000000000000000000, -1.000000000000000000 ) ) ;
#573 = ORIENTED_EDGE ( 'NONE', *, *, #505, .T. ) ;
#574 = CARTESIAN_POINT ( 'NONE',  ( 1.310000000000000053, 0.6174999999999999378, 0.8000000000000000444 ) ) ;
#575 = EDGE_CURVE ( 'NONE', #431, #1101, #642, .T. ) ;
#576 = DIRECTION ( 'NONE',  ( 0.000000000000000000, 0.000000000000000000, 1.000000000000000000 ) ) ;
#577 = CARTESIAN_POINT ( 'NONE',  ( -1.550000000000000044, -1.898202538678395240E-16, 0.8000000000000000444 ) ) ;
#578 = CARTESIAN_POINT ( 'NONE',  ( 1.149999999999999911, 0.000000000000000000, -0.8000000000000000444 ) ) ;
#579 = DIRECTION ( 'NONE',  ( 0.000000000000000000, 0.000000000000000000, -1.000000000000000000 ) ) ;
#580 = ORIENTED_EDGE ( 'NONE', *, *, #885, .F. ) ;
#581 = ORIENTED_EDGE ( 'NONE', *, *, #138, .F. ) ;
#582 = CARTESIAN_POINT ( 'NONE',  ( -1.550000000000000044, -1.898202538678395240E-16, -0.8000000000000000444 ) ) ;
#583 = LINE ( 'NONE', #577, #305 ) ;
#584 = LINE ( 'NONE', #290, #1186 ) ;
#585 = FILL_AREA_STYLE_COLOUR ( '', #528 ) ;
#586 = ORIENTED_EDGE ( 'NONE', *, *, #814, .T. ) ;
#587 = VERTEX_POINT ( 'NONE', #73 ) ;
#588 = LINE ( 'NONE', #974, #1021 ) ;
#589 = ORIENTED_EDGE ( 'NONE', *, *, #505, .F. ) ;
#590 = VECTOR ( 'NONE', #680, 1000.000000000000000 ) ;
#591 = DIRECTION ( 'NONE',  ( -1.000000000000000000, 0.000000000000000000, 0.000000000000000000 ) ) ;
#592 = ADVANCED_FACE ( 'NONE', ( #1122 ), #455, .F. ) ;
#593 = DIRECTION ( 'NONE',  ( 9.856383386231858827E-17, 1.000000000000000000, 0.000000000000000000 ) ) ;
#594 = VERTEX_POINT ( 'NONE', #830 ) ;
#595 = VERTEX_POINT ( 'NONE', #1100 ) ;
#596 = ORIENTED_EDGE ( 'NONE', *, *, #428, .F. ) ;
#597 = AXIS2_PLACEMENT_3D ( 'NONE', #657, #1002, #250 ) ;
#598 = CARTESIAN_POINT ( 'NONE',  ( 1.099999999999999867, 0.6174999999999998268, 0.8000000000000000444 ) ) ;
#599 = ADVANCED_FACE ( 'NONE', ( #1215 ), #923, .F. ) ;
#600 = DIRECTION ( 'NONE',  ( 0.000000000000000000, 0.000000000000000000, 1.000000000000000000 ) ) ;
#601 = EDGE_CURVE ( 'NONE', #132, #909, #552, .T. ) ;
#602 = DIRECTION ( 'NONE',  ( -0.000000000000000000, -0.000000000000000000, -1.000000000000000000 ) ) ;
#603 = EDGE_LOOP ( 'NONE', ( #168, #644, #142, #96 ) ) ;
#604 = ORIENTED_EDGE ( 'NONE', *, *, #1049, .F. ) ;
#605 = ORIENTED_EDGE ( 'NONE', *, *, #915, .F. ) ;
#606 = LINE ( 'NONE', #598, #389 ) ;
#607 = CARTESIAN_POINT ( 'NONE',  ( -1.310000000000000053, 0.6174999999999999378, 0.8000000000000000444 ) ) ;
#608 = CARTESIAN_POINT ( 'NONE',  ( 0.000000000000000000, 0.000000000000000000, 0.8000000000000000444 ) ) ;
#609 = VERTEX_POINT ( 'NONE', #1221 ) ;
#610 = EDGE_CURVE ( 'NONE', #916, #1068, #532, .T. ) ;
#611 = PRODUCT_DEFINITION_SHAPE ( 'NONE', 'NONE',  #420 ) ;
#612 = ORIENTED_EDGE ( 'NONE', *, *, #610, .F. ) ;
#613 = FILL_AREA_STYLE ('',( #525 ) ) ;
#614 = FACE_OUTER_BOUND ( 'NONE', #1041, .T. ) ;
#615 = AXIS2_PLACEMENT_3D ( 'NONE', #136, #65, #1019 ) ;
#616 = AXIS2_PLACEMENT_3D ( 'NONE', #320, #894, #700 ) ;
#617 = ORIENTED_EDGE ( 'NONE', *, *, #86, .T. ) ;
#618 = ORIENTED_EDGE ( 'NONE', *, *, #820, .F. ) ;
#619 = SHAPE_DEFINITION_REPRESENTATION ( #611, #866 ) ;
#620 = ADVANCED_FACE ( 'NONE', ( #648 ), #441, .T. ) ;
#621 = VECTOR ( 'NONE', #602, 1000.000000000000000 ) ;
#622 = DIRECTION ( 'NONE',  ( 0.000000000000000000, -1.000000000000000000, 0.000000000000000000 ) ) ;
#623 = ORIENTED_EDGE ( 'NONE', *, *, #961, .T. ) ;
#624 = VERTEX_POINT ( 'NONE', #182 ) ;
#625 = DIRECTION ( 'NONE',  ( 0.000000000000000000, 0.000000000000000000, 1.000000000000000000 ) ) ;
#626 = VECTOR ( 'NONE', #872, 1000.000000000000000 ) ;
#627 = DIRECTION ( 'NONE',  ( 1.000000000000000000, 0.000000000000000000, 0.000000000000000000 ) ) ;
#628 = AXIS2_PLACEMENT_3D ( 'NONE', #462, #1011, #548 ) ;
#629 = CARTESIAN_POINT ( 'NONE',  ( -1.099999999999999645, 0.6500000000000000222, -0.5333333333333328818 ) ) ;
#630 = DIRECTION ( 'NONE',  ( -1.000000000000000000, 0.000000000000000000, 0.000000000000000000 ) ) ;
#631 = ADVANCED_FACE ( 'NONE', ( #259 ), #361, .F. ) ;
#632 = CARTESIAN_POINT ( 'NONE',  ( 1.517500000000000071, 0.03249999999999999417, 0.8000000000000000444 ) ) ;
#633 = MECHANICAL_DESIGN_GEOMETRIC_PRESENTATION_REPRESENTATION (  '', ( #1063 ), #1082 ) ;
#634 = EDGE_LOOP ( 'NONE', ( #335, #281, #395, #538 ) ) ;
#635 = ORIENTED_EDGE ( 'NONE', *, *, #336, .T. ) ;
#636 =( LENGTH_UNIT ( ) NAMED_UNIT ( * ) SI_UNIT ( .MILLI., .METRE. ) );
#637 = CARTESIAN_POINT ( 'NONE',  ( 1.310000000000000053, 0.6174999999999999378, -0.8000000000000000444 ) ) ;
#638 = CARTESIAN_POINT ( 'NONE',  ( 1.099999999999999867, 0.6499999999999999112, -0.8000000000000000444 ) ) ;
#639 = EDGE_CURVE ( 'NONE', #916, #595, #842, .T. ) ;
#640 = CARTESIAN_POINT ( 'NONE',  ( 1.149999999999999911, 0.03249999999999999417, -0.8000000000000000444 ) ) ;
#641 = DIRECTION ( 'NONE',  ( 0.000000000000000000, 1.000000000000000000, 0.000000000000000000 ) ) ;
#642 = LINE ( 'NONE', #838, #1004 ) ;
#643 = CARTESIAN_POINT ( 'NONE',  ( -1.550000000000000044, -1.898202538678395240E-16, 0.8000000000000000444 ) ) ;
#644 = ORIENTED_EDGE ( 'NONE', *, *, #50, .F. ) ;
#645 = EDGE_CURVE ( 'NONE', #1067, #1007, #264, .T. ) ;
#646 =( NAMED_UNIT ( * ) PLANE_ANGLE_UNIT ( ) SI_UNIT ( $, .RADIAN. ) );
#647 = VERTEX_POINT ( 'NONE', #1020 ) ;
#648 = FACE_OUTER_BOUND ( 'NONE', #634, .T. ) ;
#649 = DIRECTION ( 'NONE',  ( 0.000000000000000000, -1.000000000000000000, 0.000000000000000000 ) ) ;
#650 = EDGE_CURVE ( 'NONE', #624, #1074, #747, .T. ) ;
#651 = CARTESIAN_POINT ( 'NONE',  ( 1.517500000000000071, 0.03249999999999999417, -0.8000000000000000444 ) ) ;
#652 = DIRECTION ( 'NONE',  ( 9.856383386231858827E-17, 1.000000000000000000, 0.000000000000000000 ) ) ;
#653 = VECTOR ( 'NONE', #826, 1000.000000000000000 ) ;
#654 = ORIENTED_EDGE ( 'NONE', *, *, #1199, .F. ) ;
#655 = ORIENTED_EDGE ( 'NONE', *, *, #1006, .F. ) ;
#656 = DIRECTION ( 'NONE',  ( 1.000000000000000000, 0.000000000000000000, 0.000000000000000000 ) ) ;
#657 = CARTESIAN_POINT ( 'NONE',  ( -1.310000000000000053, 0.6174999999999999378, -0.8000000000000000444 ) ) ;
#658 = DIRECTION ( 'NONE',  ( 1.000000000000000000, -4.745506346695990935E-16, 0.000000000000000000 ) ) ;
#659 = ADVANCED_FACE ( 'NONE', ( #349 ), #1117, .F. ) ;
#660 = CARTESIAN_POINT ( 'NONE',  ( -1.550000000000000044, 0.6500000000000000222, 0.8000000000000000444 ) ) ;
#661 = CARTESIAN_POINT ( 'NONE',  ( 1.310000000000000053, 0.6500000000000000222, 0.8000000000000000444 ) ) ;
#662 = ORIENTED_EDGE ( 'NONE', *, *, #82, .F. ) ;
#663 = DIRECTION ( 'NONE',  ( 0.000000000000000000, 0.000000000000000000, -1.000000000000000000 ) ) ;
#664 = PRODUCT_DEFINITION_FORMATION_WITH_SPECIFIED_SOURCE ( 'ANY', '', #701, .NOT_KNOWN. ) ;
#665 = DIRECTION ( 'NONE',  ( -0.000000000000000000, 1.000000000000000000, 0.000000000000000000 ) ) ;
#666 = EDGE_CURVE ( 'NONE', #1196, #494, #87, .T. ) ;
#667 = DIRECTION ( 'NONE',  ( -1.000000000000000000, -1.290716872006551794E-16, 0.000000000000000000 ) ) ;
#668 = EDGE_LOOP ( 'NONE', ( #980, #423, #499, #889 ) ) ;
#669 = PLANE ( 'NONE',  #311 ) ;
#670 = VECTOR ( 'NONE', #298, 1000.000000000000000 ) ;
#671 = VECTOR ( 'NONE', #421, 1000.000000000000000 ) ;
#672 = LINE ( 'NONE', #2, #1050 ) ;
#673 = DIRECTION ( 'NONE',  ( 0.000000000000000000, 0.000000000000000000, -1.000000000000000000 ) ) ;
#674 = CARTESIAN_POINT ( 'NONE',  ( -1.149999999999999911, 0.000000000000000000, 0.8000000000000000444 ) ) ;
#675 = ORIENTED_EDGE ( 'NONE', *, *, #86, .F. ) ;
#676 = ORIENTED_EDGE ( 'NONE', *, *, #556, .F. ) ;
#677 = DIRECTION ( 'NONE',  ( 0.000000000000000000, 0.000000000000000000, -1.000000000000000000 ) ) ;
#678 = FACE_OUTER_BOUND ( 'NONE', #1013, .T. ) ;
#679 = DIRECTION ( 'NONE',  ( 0.000000000000000000, 0.000000000000000000, 1.000000000000000000 ) ) ;
#680 = DIRECTION ( 'NONE',  ( 0.000000000000000000, 0.000000000000000000, -1.000000000000000000 ) ) ;
#681 = LINE ( 'NONE', #5, #1220 ) ;
#682 = AXIS2_PLACEMENT_3D ( 'NONE', #470, #679, #852 ) ;
#683 = ORIENTED_EDGE ( 'NONE', *, *, #1049, .T. ) ;
#684 = LINE ( 'NONE', #1055, #411 ) ;
#685 = ADVANCED_FACE ( 'NONE', ( #1108 ), #1015, .F. ) ;
#686 = CARTESIAN_POINT ( 'NONE',  ( 1.550000000000000044, 0.6500000000000000222, -0.8000000000000000444 ) ) ;
#687 = VECTOR ( 'NONE', #627, 1000.000000000000000 ) ;
#688 = CARTESIAN_POINT ( 'NONE',  ( -1.149999999999999911, 0.6500000000000000222, -0.5333333333333328818 ) ) ;
#689 = CARTESIAN_POINT ( 'NONE',  ( -1.550000000000000044, 0.6500000000000000222, -0.8000000000000000444 ) ) ;
#690 = DIRECTION ( 'NONE',  ( 1.000000000000000000, 0.000000000000000000, 0.000000000000000000 ) ) ;
#691 = LINE ( 'NONE', #1061, #906 ) ;
#692 = EDGE_LOOP ( 'NONE', ( #1129, #867, #930, #1217 ) ) ;
#693 = ORIENTED_EDGE ( 'NONE', *, *, #961, .F. ) ;
#694 = CLOSED_SHELL ( 'NONE', ( #969, #518, #735, #224, #1181, #984, #713, #266, #1216, #685, #659, #56, #341, #422 ) ) ;
#695 = EDGE_CURVE ( 'NONE', #1191, #587, #950, .T. ) ;
#696 = DIRECTION ( 'NONE',  ( 0.000000000000000000, 0.000000000000000000, -1.000000000000000000 ) ) ;
#697 = PLANE ( 'NONE',  #184 ) ;
#698 = ORIENTED_EDGE ( 'NONE', *, *, #1092, .F. ) ;
#699 = SURFACE_STYLE_USAGE ( .BOTH. , #709 ) ;
#700 = DIRECTION ( 'NONE',  ( 1.000000000000000000, 0.000000000000000000, 0.000000000000000000 ) ) ;
#701 = PRODUCT ( 'RT1206BRD07120RL', 'RT1206BRD07120RL', '', ( #1184 ) ) ;
#702 = CARTESIAN_POINT ( 'NONE',  ( 1.310000000000000053, 0.6500000000000000222, -0.8000000000000000444 ) ) ;
#703 = VECTOR ( 'NONE', #907, 1000.000000000000000 ) ;
#704 = EDGE_CURVE ( 'NONE', #595, #777, #106, .T. ) ;
#705 = DIRECTION ( 'NONE',  ( 1.000000000000000000, -9.427844978134818968E-17, 0.000000000000000000 ) ) ;
#706 = LINE ( 'NONE', #544, #308 ) ;
#707 = ORIENTED_EDGE ( 'NONE', *, *, #885, .T. ) ;
#708 = EDGE_LOOP ( 'NONE', ( #1148, #438, #604, #439 ) ) ;
#709 = SURFACE_SIDE_STYLE ('',( #126 ) ) ;
#710 = VERTEX_POINT ( 'NONE', #1029 ) ;
#711 = FACE_OUTER_BOUND ( 'NONE', #429, .T. ) ;
#712 = UNCERTAINTY_MEASURE_WITH_UNIT (LENGTH_MEASURE( 1.000000000000000082E-05 ), #722, 'distance_accuracy_value', 'NONE');
#713 = ADVANCED_FACE ( 'NONE', ( #873 ), #1034, .F. ) ;
#714 = ORIENTED_EDGE ( 'NONE', *, *, #473, .F. ) ;
#715 = VERTEX_POINT ( 'NONE', #1153 ) ;
#716 = EDGE_LOOP ( 'NONE', ( #330, #767, #654, #222 ) ) ;
#717 = AXIS2_PLACEMENT_3D ( 'NONE', #1154, #1038, #673 ) ;
#718 = LINE ( 'NONE', #448, #1000 ) ;
#719 = EDGE_CURVE ( 'NONE', #945, #1179, #1128, .T. ) ;
#720 = ORIENTED_EDGE ( 'NONE', *, *, #695, .T. ) ;
#721 = ORIENTED_EDGE ( 'NONE', *, *, #855, .T. ) ;
#722 =( LENGTH_UNIT ( ) NAMED_UNIT ( * ) SI_UNIT ( .MILLI., .METRE. ) );
#723 = AXIS2_PLACEMENT_3D ( 'NONE', #543, #928, #705 ) ;
#724 = VECTOR ( 'NONE', #769, 1000.000000000000000 ) ;
#725 = EDGE_LOOP ( 'NONE', ( #802, #693, #698, #635 ) ) ;
#726 = ORIENTED_EDGE ( 'NONE', *, *, #255, .T. ) ;
#727 = VECTOR ( 'NONE', #781, 1000.000000000000000 ) ;
#728 = EDGE_CURVE ( 'NONE', #338, #647, #23, .T. ) ;
#729 = SURFACE_STYLE_FILL_AREA ( #1024 ) ;
#730 = PLANE ( 'NONE',  #870 ) ;
#731 = CARTESIAN_POINT ( 'NONE',  ( -1.099999999999999867, 0.6174999999999999378, -0.8000000000000000444 ) ) ;
#732 = ORIENTED_EDGE ( 'NONE', *, *, #760, .T. ) ;
#733 = SURFACE_SIDE_STYLE ('',( #729 ) ) ;
#734 = DIRECTION ( 'NONE',  ( -9.856383386231858827E-17, -1.000000000000000000, 0.000000000000000000 ) ) ;
#735 = ADVANCED_FACE ( 'NONE', ( #297 ), #191, .F. ) ;
#736 = DIRECTION ( 'NONE',  ( 1.000000000000000000, -1.290716872006551794E-16, 0.000000000000000000 ) ) ;
#737 = ORIENTED_EDGE ( 'NONE', *, *, #829, .T. ) ;
#738 = CARTESIAN_POINT ( 'NONE',  ( 1.149999999999999911, 0.000000000000000000, 0.8000000000000000444 ) ) ;
#739 = STYLED_ITEM ( 'NONE', ( #359 ), #921 ) ;
#740 = CARTESIAN_POINT ( 'NONE',  ( -1.550000000000000044, -1.898202538678395240E-16, 0.8000000000000000444 ) ) ;
#741 = ADVANCED_FACE ( 'NONE', ( #847 ), #187, .F. ) ;
#742 = LINE ( 'NONE', #926, #436 ) ;
#743 = CARTESIAN_POINT ( 'NONE',  ( -1.149999999999999911, 0.000000000000000000, -0.8000000000000000444 ) ) ;
#744 = CARTESIAN_POINT ( 'NONE',  ( 1.310000000000000053, 0.6174999999999999378, 0.8000000000000000444 ) ) ;
#745 = ORIENTED_EDGE ( 'NONE', *, *, #556, .T. ) ;
#746 = AXIS2_PLACEMENT_3D ( 'NONE', #120, #956, #200 ) ;
#747 = LINE ( 'NONE', #1195, #407 ) ;
#748 = VECTOR ( 'NONE', #123, 1000.000000000000000 ) ;
#749 = EDGE_CURVE ( 'NONE', #595, #985, #672, .T. ) ;
#750 = CARTESIAN_POINT ( 'NONE',  ( 1.517500000000000071, 0.03249999999999999417, -3.890865574559980278 ) ) ;
#751 = DIRECTION ( 'NONE',  ( 0.000000000000000000, -1.000000000000000000, 0.000000000000000000 ) ) ;
#752 = VECTOR ( 'NONE', #84, 1000.000000000000000 ) ;
#753 = CARTESIAN_POINT ( 'NONE',  ( 1.517500000000000071, 0.03249999999999999417, 0.8000000000000000444 ) ) ;
#754 = CARTESIAN_POINT ( 'NONE',  ( -1.517500000000000071, 0.6174999999999999378, -0.8000000000000000444 ) ) ;
#755 = DIRECTION ( 'NONE',  ( 1.000000000000000000, 0.000000000000000000, 0.000000000000000000 ) ) ;
#756 = AXIS2_PLACEMENT_3D ( 'NONE', #1185, #625, #444 ) ;
#757 = CARTESIAN_POINT ( 'NONE',  ( 1.149999999999999911, 0.03249999999999999417, 0.8000000000000000444 ) ) ;
#758 = EDGE_LOOP ( 'NONE', ( #1109, #890, #813, #385 ) ) ;
#759 = CARTESIAN_POINT ( 'NONE',  ( -1.099999999999999645, 0.6174999999999999378, 0.5333333333333328818 ) ) ;
#760 = EDGE_CURVE ( 'NONE', #110, #587, #476, .T. ) ;
#761 = CARTESIAN_POINT ( 'NONE',  ( 1.099999999999999867, 0.6499999999999999112, -0.8000000000000000444 ) ) ;
#762 = VERTEX_POINT ( 'NONE', #209 ) ;
#763 = CARTESIAN_POINT ( 'NONE',  ( -1.099999999999999645, 0.6500000000000000222, 0.5333333333333328818 ) ) ;
#764 = CARTESIAN_POINT ( 'NONE',  ( 1.149999999999999911, 0.000000000000000000, 0.8000000000000000444 ) ) ;
#765 = DIRECTION ( 'NONE',  ( -1.000000000000000000, -1.290716872006551794E-16, 0.000000000000000000 ) ) ;
#766 = CARTESIAN_POINT ( 'NONE',  ( -1.517500000000000071, 0.03249999999999999417, -3.890865574559980278 ) ) ;
#767 = ORIENTED_EDGE ( 'NONE', *, *, #874, .F. ) ;
#768 = ORIENTED_EDGE ( 'NONE', *, *, #76, .T. ) ;
#769 = DIRECTION ( 'NONE',  ( 1.000000000000000000, 0.000000000000000000, 0.000000000000000000 ) ) ;
#770 = LINE ( 'NONE', #1032, #833 ) ;
#771 = FACE_OUTER_BOUND ( 'NONE', #510, .T. ) ;
#772 = LINE ( 'NONE', #323, #89 ) ;
#773 = DIRECTION ( 'NONE',  ( -1.000000000000000000, 0.000000000000000000, 0.000000000000000000 ) ) ;
#774 = VECTOR ( 'NONE', #531, 1000.000000000000000 ) ;
#775 = CARTESIAN_POINT ( 'NONE',  ( -1.310000000000000053, 0.6500000000000000222, 0.8000000000000000444 ) ) ;
#776 = EDGE_CURVE ( 'NONE', #34, #1190, #583, .T. ) ;
#777 = VERTEX_POINT ( 'NONE', #376 ) ;
#778 = CARTESIAN_POINT ( 'NONE',  ( 1.550000000000000044, -1.898202538678395240E-16, 0.8000000000000000444 ) ) ;
#779 = VERTEX_POINT ( 'NONE', #1051 ) ;
#780 = DIRECTION ( 'NONE',  ( -0.000000000000000000, 1.000000000000000000, 0.000000000000000000 ) ) ;
#781 = DIRECTION ( 'NONE',  ( -1.355252715606880543E-16, -0.000000000000000000, -1.000000000000000000 ) ) ;
#782 =( NAMED_UNIT ( * ) PLANE_ANGLE_UNIT ( ) SI_UNIT ( $, .RADIAN. ) );
#783 = AXIS2_PLACEMENT_3D ( 'NONE', #913, #449, #751 ) ;
#784 = ORIENTED_EDGE ( 'NONE', *, *, #837, .T. ) ;
#785 = ORIENTED_EDGE ( 'NONE', *, *, #7, .T. ) ;
#786 = PLANE ( 'NONE',  #1056 ) ;
#787 = ADVANCED_FACE ( 'NONE', ( #771 ), #1132, .F. ) ;
#788 = VERTEX_POINT ( 'NONE', #970 ) ;
#789 = LINE ( 'NONE', #607, #953 ) ;
#790 = SURFACE_SIDE_STYLE ('',( #15 ) ) ;
#791 = ORIENTED_EDGE ( 'NONE', *, *, #645, .T. ) ;
#792 = ADVANCED_FACE ( 'NONE', ( #288 ), #571, .F. ) ;
#793 =( LENGTH_UNIT ( ) NAMED_UNIT ( * ) SI_UNIT ( .MILLI., .METRE. ) );
#794 = CARTESIAN_POINT ( 'NONE',  ( -1.310000000000000053, 0.6174999999999999378, -0.5333333333333328818 ) ) ;
#795 = UNCERTAINTY_MEASURE_WITH_UNIT (LENGTH_MEASURE( 1.000000000000000082E-05 ), #793, 'distance_accuracy_value', 'NONE');
#796 = CARTESIAN_POINT ( 'NONE',  ( -1.310000000000000053, 0.6500000000000000222, -0.8000000000000000444 ) ) ;
#797 = ORIENTED_EDGE ( 'NONE', *, *, #246, .T. ) ;
#798 = FACE_OUTER_BOUND ( 'NONE', #1078, .T. ) ;
#799 = PLANE ( 'NONE',  #47 ) ;
#800 = ADVANCED_FACE ( 'NONE', ( #963 ), #112, .F. ) ;
#801 = ORIENTED_EDGE ( 'NONE', *, *, #473, .T. ) ;
#802 = ORIENTED_EDGE ( 'NONE', *, *, #260, .T. ) ;
#803 = CARTESIAN_POINT ( 'NONE',  ( -1.149999999999999911, 0.6174999999999999378, 0.8000000000000000444 ) ) ;
#804 = CARTESIAN_POINT ( 'NONE',  ( 1.310000000000000053, 0.6500000000000000222, -0.8000000000000000444 ) ) ;
#805 = DIRECTION ( 'NONE',  ( 0.000000000000000000, 1.000000000000000000, 0.000000000000000000 ) ) ;
#806 = VECTOR ( 'NONE', #994, 1000.000000000000000 ) ;
#807 = ORIENTED_EDGE ( 'NONE', *, *, #551, .T. ) ;
#808 = APPLICATION_PROTOCOL_DEFINITION ( 'draft international standard', 'automotive_design', 1998, #1165 ) ;
#809 = LINE ( 'NONE', #134, #671 ) ;
#810 = CLOSED_SHELL ( 'NONE', ( #792, #236, #1017, #620, #800, #592 ) ) ;
#811 = DIRECTION ( 'NONE',  ( 0.000000000000000000, 1.000000000000000000, 0.000000000000000000 ) ) ;
#812 = ORIENTED_EDGE ( 'NONE', *, *, #381, .T. ) ;
#813 = ORIENTED_EDGE ( 'NONE', *, *, #192, .T. ) ;
#814 = EDGE_CURVE ( 'NONE', #1062, #443, #772, .T. ) ;
#815 = VECTOR ( 'NONE', #180, 1000.000000000000000 ) ;
#816 = PLANE ( 'NONE',  #1145 ) ;
#817 = DIRECTION ( 'NONE',  ( 0.000000000000000000, 1.000000000000000000, 0.000000000000000000 ) ) ;
#818 = ORIENTED_EDGE ( 'NONE', *, *, #1119, .F. ) ;
#819 = ORIENTED_EDGE ( 'NONE', *, *, #246, .F. ) ;
#820 = EDGE_CURVE ( 'NONE', #238, #487, #718, .T. ) ;
#821 = LINE ( 'NONE', #171, #1139 ) ;
#822 = DIRECTION ( 'NONE',  ( 0.000000000000000000, 0.000000000000000000, -1.000000000000000000 ) ) ;
#823 = VERTEX_POINT ( 'NONE', #119 ) ;
#824 = VECTOR ( 'NONE', #1048, 1000.000000000000000 ) ;
#825 = LINE ( 'NONE', #75, #533 ) ;
#826 = DIRECTION ( 'NONE',  ( 9.427844978134818968E-17, 1.000000000000000000, -1.277711250893790151E-32 ) ) ;
#827 = CARTESIAN_POINT ( 'NONE',  ( 1.310000000000000053, 0.6174999999999999378, 0.8000000000000000444 ) ) ;
#828 = CARTESIAN_POINT ( 'NONE',  ( -1.310000000000000053, 0.6174999999999999378, -0.5333333333333328818 ) ) ;
#829 = EDGE_CURVE ( 'NONE', #624, #909, #962, .T. ) ;
#830 = CARTESIAN_POINT ( 'NONE',  ( -1.517500000000000071, 0.6174999999999999378, -0.8000000000000000444 ) ) ;
#831 = VECTOR ( 'NONE', #964, 1000.000000000000000 ) ;
#832 = ORIENTED_EDGE ( 'NONE', *, *, #1138, .F. ) ;
#833 = VECTOR ( 'NONE', #28, 1000.000000000000000 ) ;
#834 = ORIENTED_EDGE ( 'NONE', *, *, #776, .T. ) ;
#835 = CARTESIAN_POINT ( 'NONE',  ( 1.517500000000000071, 0.03249999999999999417, 0.8000000000000000444 ) ) ;
#836 = DIRECTION ( 'NONE',  ( 9.856383386231858827E-17, 1.000000000000000000, 0.000000000000000000 ) ) ;
#837 = EDGE_CURVE ( 'NONE', #1074, #903, #770, .T. ) ;
#838 = CARTESIAN_POINT ( 'NONE',  ( -1.149999999999999911, 0.03249999999999999417, -0.8000000000000000444 ) ) ;
#839 = CARTESIAN_POINT ( 'NONE',  ( 1.149999999999999911, 0.03249999999999999417, 0.8000000000000000444 ) ) ;
#840 = ORIENTED_EDGE ( 'NONE', *, *, #13, .T. ) ;
#841 = AXIS2_PLACEMENT_3D ( 'NONE', #943, #1043, #196 ) ;
#842 = LINE ( 'NONE', #651, #1218 ) ;
#843 = CARTESIAN_POINT ( 'NONE',  ( -1.310000000000000053, 0.6174999999999999378, 0.8000000000000000444 ) ) ;
#844 =( GEOMETRIC_REPRESENTATION_CONTEXT ( 3 ) GLOBAL_UNCERTAINTY_ASSIGNED_CONTEXT ( ( #334 ) ) GLOBAL_UNIT_ASSIGNED_CONTEXT ( ( #16, #782, #1155 ) ) REPRESENTATION_CONTEXT ( 'NONE', 'WORKASPACE' ) );
#845 = DIRECTION ( 'NONE',  ( 0.000000000000000000, 0.000000000000000000, -1.000000000000000000 ) ) ;
#846 = CARTESIAN_POINT ( 'NONE',  ( 0.000000000000000000, 0.000000000000000000, 0.8000000000000000444 ) ) ;
#847 = FACE_OUTER_BOUND ( 'NONE', #143, .T. ) ;
#848 = CARTESIAN_POINT ( 'NONE',  ( -1.099999999999999867, 0.6174999999999999378, -0.8000000000000000444 ) ) ;
#849 = DIRECTION ( 'NONE',  ( 0.000000000000000000, 0.000000000000000000, -1.000000000000000000 ) ) ;
#850 = ADVANCED_FACE ( 'NONE', ( #678 ), #400, .F. ) ;
#851 = PLANE ( 'NONE',  #616 ) ;
#852 = DIRECTION ( 'NONE',  ( 1.000000000000000000, 0.000000000000000000, 0.000000000000000000 ) ) ;
#853 = CARTESIAN_POINT ( 'NONE',  ( 1.149999999999999911, 0.000000000000000000, -0.8000000000000000444 ) ) ;
#854 = DIRECTION ( 'NONE',  ( 0.000000000000000000, -1.000000000000000000, 0.000000000000000000 ) ) ;
#855 = EDGE_CURVE ( 'NONE', #710, #1007, #306, .T. ) ;
#856 = LINE ( 'NONE', #296, #30 ) ;
#857 = VECTOR ( 'NONE', #811, 1000.000000000000000 ) ;
#858 = CARTESIAN_POINT ( 'NONE',  ( 1.517500000000000071, 0.6174999999999999378, -0.8000000000000000444 ) ) ;
#859 = DIRECTION ( 'NONE',  ( 0.000000000000000000, 0.000000000000000000, 1.000000000000000000 ) ) ;
#860 = ORIENTED_EDGE ( 'NONE', *, *, #650, .F. ) ;
#861 = ORIENTED_EDGE ( 'NONE', *, *, #215, .T. ) ;
#862 = CARTESIAN_POINT ( 'NONE',  ( 1.517500000000000071, 0.03249999999999999417, 0.8000000000000000444 ) ) ;
#863 = CARTESIAN_POINT ( 'NONE',  ( 1.099999999999999867, 0.6174999999999998268, -0.8000000000000000444 ) ) ;
#864 = ADVANCED_FACE ( 'NONE', ( #216 ), #851, .T. ) ;
#865 = DIRECTION ( 'NONE',  ( 1.000000000000000000, 4.745506346695990935E-16, 0.000000000000000000 ) ) ;
#866 = ADVANCED_BREP_SHAPE_REPRESENTATION ( 'RT1206BRD07120RL', ( #914, #91, #503, #921, #212 ), #1222 ) ;
#867 = ORIENTED_EDGE ( 'NONE', *, *, #1224, .F. ) ;
#868 = VERTEX_POINT ( 'NONE', #1084 ) ;
#869 = CARTESIAN_POINT ( 'NONE',  ( 1.550000000000000044, 0.6500000000000000222, 0.8000000000000000444 ) ) ;
#870 = AXIS2_PLACEMENT_3D ( 'NONE', #608, #1005, #1194 ) ;
#871 = EDGE_LOOP ( 'NONE', ( #784, #40, #178, #1204, #227, #149, #62, #1183 ) ) ;
#872 = DIRECTION ( 'NONE',  ( 9.856383386231858827E-17, 1.000000000000000000, 0.000000000000000000 ) ) ;
#873 = FACE_OUTER_BOUND ( 'NONE', #213, .T. ) ;
#874 = EDGE_CURVE ( 'NONE', #386, #404, #606, .T. ) ;
#875 = CARTESIAN_POINT ( 'NONE',  ( -1.550000000000000044, 0.6500000000000000222, 0.8000000000000000444 ) ) ;
#876 = LINE ( 'NONE', #211, #748 ) ;
#877 = AXIS2_PLACEMENT_3D ( 'NONE', #353, #267, #1018 ) ;
#878 = VERTEX_POINT ( 'NONE', #51 ) ;
#879 = EDGE_LOOP ( 'NONE', ( #840, #137, #991, #1180 ) ) ;
#880 = DIRECTION ( 'NONE',  ( 0.000000000000000000, 0.000000000000000000, 1.000000000000000000 ) ) ;
#881 = DIRECTION ( 'NONE',  ( 0.000000000000000000, 0.000000000000000000, 1.000000000000000000 ) ) ;
#882 = LINE ( 'NONE', #977, #670 ) ;
#883 = EDGE_LOOP ( 'NONE', ( #331, #506, #1182, #326 ) ) ;
#884 = VERTEX_POINT ( 'NONE', #997 ) ;
#885 = EDGE_CURVE ( 'NONE', #878, #945, #809, .T. ) ;
#886 = DIRECTION ( 'NONE',  ( 1.000000000000000000, 0.000000000000000000, 0.000000000000000000 ) ) ;
#887 = LINE ( 'NONE', #241, #541 ) ;
#888 = FACE_OUTER_BOUND ( 'NONE', #708, .T. ) ;
#889 = ORIENTED_EDGE ( 'NONE', *, *, #339, .T. ) ;
#890 = ORIENTED_EDGE ( 'NONE', *, *, #749, .T. ) ;
#891 = CARTESIAN_POINT ( 'NONE',  ( 1.550000000000000044, 0.6500000000000000222, 0.8000000000000000444 ) ) ;
#892 = EDGE_LOOP ( 'NONE', ( #249, #1164, #151, #617 ) ) ;
#893 = EDGE_CURVE ( 'NONE', #936, #132, #229, .T. ) ;
#894 = DIRECTION ( 'NONE',  ( -0.000000000000000000, 1.000000000000000000, 0.000000000000000000 ) ) ;
#895 =( GEOMETRIC_REPRESENTATION_CONTEXT ( 3 ) GLOBAL_UNCERTAINTY_ASSIGNED_CONTEXT ( ( #795 ) ) GLOBAL_UNIT_ASSIGNED_CONTEXT ( ( #793, #646, #941 ) ) REPRESENTATION_CONTEXT ( 'NONE', 'WORKASPACE' ) );
#896 = CARTESIAN_POINT ( 'NONE',  ( -1.149999999999999911, 0.03249999999999999417, 0.8000000000000000444 ) ) ;
#897 = UNCERTAINTY_MEASURE_WITH_UNIT (LENGTH_MEASURE( 1.000000000000000082E-05 ), #133, 'distance_accuracy_value', 'NONE');
#898 = ORIENTED_EDGE ( 'NONE', *, *, #260, .F. ) ;
#899 = ORIENTED_EDGE ( 'NONE', *, *, #1070, .F. ) ;
#900 = LINE ( 'NONE', #37, #857 ) ;
#901 = ORIENTED_EDGE ( 'NONE', *, *, #174, .T. ) ;
#902 = VECTOR ( 'NONE', #278, 1000.000000000000000 ) ;
#903 = VERTEX_POINT ( 'NONE', #804 ) ;
#904 = EDGE_LOOP ( 'NONE', ( #1202, #745, #379, #248 ) ) ;
#905 = SURFACE_SIDE_STYLE ('',( #1093 ) ) ;
#906 = VECTOR ( 'NONE', #593, 1000.000000000000000 ) ;
#907 = DIRECTION ( 'NONE',  ( 0.000000000000000000, 0.000000000000000000, -1.000000000000000000 ) ) ;
#908 = ADVANCED_FACE ( 'NONE', ( #798 ), #1187, .T. ) ;
#909 = VERTEX_POINT ( 'NONE', #42 ) ;
#910 = ORIENTED_EDGE ( 'NONE', *, *, #639, .T. ) ;
#911 = CARTESIAN_POINT ( 'NONE',  ( 1.550000000000000044, -1.898202538678395240E-16, 0.8000000000000000444 ) ) ;
#912 = AXIS2_PLACEMENT_3D ( 'NONE', #839, #1123, #4 ) ;
#913 = CARTESIAN_POINT ( 'NONE',  ( -1.149999999999999911, -2.184285145224380109, -0.8000000000000000444 ) ) ;
#914 = MANIFOLD_SOLID_BREP ( 'NONE', #975 ) ;
#915 = EDGE_CURVE ( 'NONE', #868, #458, #1205, .T. ) ;
#916 = VERTEX_POINT ( 'NONE', #1003 ) ;
#917 = VERTEX_POINT ( 'NONE', #1219 ) ;
#918 = CARTESIAN_POINT ( 'NONE',  ( -1.099999999999999645, 0.6174999999999999378, 0.8000000000000000444 ) ) ;
#919 = LINE ( 'NONE', #542, #939 ) ;
#920 = VECTOR ( 'NONE', #262, 1000.000000000000000 ) ;
#921 = MANIFOLD_SOLID_BREP ( 'NONE', #694 ) ;
#922 = LINE ( 'NONE', #314, #938 ) ;
#923 = PLANE ( 'NONE',  #628 ) ;
#924 = VECTOR ( 'NONE', #998, 1000.000000000000000 ) ;
#925 = EDGE_LOOP ( 'NONE', ( #720, #301, #1178, #1150 ) ) ;
#926 = CARTESIAN_POINT ( 'NONE',  ( -1.550000000000000044, -1.898202538678395240E-16, -0.8000000000000000444 ) ) ;
#927 = EDGE_CURVE ( 'NONE', #1076, #338, #1115, .T. ) ;
#928 = DIRECTION ( 'NONE',  ( 9.427844978134818968E-17, 1.000000000000000000, -1.277711250893790151E-32 ) ) ;
#929 = DIRECTION ( 'NONE',  ( 0.000000000000000000, 0.000000000000000000, 1.000000000000000000 ) ) ;
#930 = ORIENTED_EDGE ( 'NONE', *, *, #874, .T. ) ;
#931 = EDGE_CURVE ( 'NONE', #985, #715, #919, .T. ) ;
#932 = CARTESIAN_POINT ( 'NONE',  ( 1.099999999999999645, 0.6174999999999999378, -0.5333333333333328818 ) ) ;
#933 = CARTESIAN_POINT ( 'NONE',  ( -1.149999999999999911, 0.6500000000000000222, 0.5333333333333328818 ) ) ;
#934 = PLANE ( 'NONE',  #912 ) ;
#935 =( GEOMETRIC_REPRESENTATION_CONTEXT ( 3 ) GLOBAL_UNCERTAINTY_ASSIGNED_CONTEXT ( ( #391 ) ) GLOBAL_UNIT_ASSIGNED_CONTEXT ( ( #636, #453, #170 ) ) REPRESENTATION_CONTEXT ( 'NONE', 'WORKASPACE' ) );
#936 = VERTEX_POINT ( 'NONE', #932 ) ;
#937 = FACE_OUTER_BOUND ( 'NONE', #313, .T. ) ;
#938 = VECTOR ( 'NONE', #1176, 1000.000000000000000 ) ;
#939 = VECTOR ( 'NONE', #1026, 1000.000000000000000 ) ;
#940 = DIRECTION ( 'NONE',  ( 0.000000000000000000, 0.000000000000000000, 1.000000000000000000 ) ) ;
#941 =( NAMED_UNIT ( * ) SI_UNIT ( $, .STERADIAN. ) SOLID_ANGLE_UNIT ( ) );
#942 = VECTOR ( 'NONE', #166, 1000.000000000000000 ) ;
#943 = CARTESIAN_POINT ( 'NONE',  ( 0.000000000000000000, 0.000000000000000000, 0.8000000000000000444 ) ) ;
#944 = ADVANCED_FACE ( 'NONE', ( #460 ), #186, .T. ) ;
#945 = VERTEX_POINT ( 'NONE', #71 ) ;
#946 = AXIS2_PLACEMENT_3D ( 'NONE', #202, #491, #854 ) ;
#947 = ORIENTED_EDGE ( 'NONE', *, *, #1169, .F. ) ;
#948 = CARTESIAN_POINT ( 'NONE',  ( -1.517500000000000071, 0.6174999999999999378, 0.8000000000000000444 ) ) ;
#949 = DIRECTION ( 'NONE',  ( 1.000000000000000000, 0.000000000000000000, 0.000000000000000000 ) ) ;
#950 = LINE ( 'NONE', #29, #727 ) ;
#951 = SURFACE_SIDE_STYLE ('',( #403 ) ) ;
#952 = ADVANCED_FACE ( 'NONE', ( #175 ), #555, .T. ) ;
#953 = VECTOR ( 'NONE', #600, 1000.000000000000000 ) ;
#954 = ORIENTED_EDGE ( 'NONE', *, *, #121, .T. ) ;
#955 = CARTESIAN_POINT ( 'NONE',  ( 1.517500000000000071, 0.03249999999999999417, -0.8000000000000000444 ) ) ;
#956 = DIRECTION ( 'NONE',  ( -0.000000000000000000, 1.000000000000000000, 0.000000000000000000 ) ) ;
#957 = DIRECTION ( 'NONE',  ( -9.427844978134818968E-17, -1.000000000000000000, 0.000000000000000000 ) ) ;
#958 =( LENGTH_UNIT ( ) NAMED_UNIT ( * ) SI_UNIT ( .MILLI., .METRE. ) );
#959 = ORIENTED_EDGE ( 'NONE', *, *, #645, .F. ) ;
#960 = DIRECTION ( 'NONE',  ( 0.000000000000000000, -1.000000000000000000, 0.000000000000000000 ) ) ;
#961 = EDGE_CURVE ( 'NONE', #268, #238, #90, .T. ) ;
#962 = LINE ( 'NONE', #22, #626 ) ;
#963 = FACE_OUTER_BOUND ( 'NONE', #716, .T. ) ;
#964 = DIRECTION ( 'NONE',  ( 0.000000000000000000, 0.000000000000000000, 1.000000000000000000 ) ) ;
#965 = LINE ( 'NONE', #757, #1083 ) ;
#966 = VERTEX_POINT ( 'NONE', #835 ) ;
#967 = LINE ( 'NONE', #778, #94 ) ;
#968 = PRESENTATION_LAYER_ASSIGNMENT (  '', '', ( #1099 ) ) ;
#969 = ADVANCED_FACE ( 'NONE', ( #469 ), #1213, .F. ) ;
#970 = CARTESIAN_POINT ( 'NONE',  ( -1.099999999999999645, 0.6174999999999999378, 0.8000000000000000444 ) ) ;
#971 = CARTESIAN_POINT ( 'NONE',  ( 1.099999999999999645, 0.6174999999999999378, 0.5333333333333328818 ) ) ;
#972 = ORIENTED_EDGE ( 'NONE', *, *, #50, .T. ) ;
#973 = ORIENTED_EDGE ( 'NONE', *, *, #481, .T. ) ;
#974 = CARTESIAN_POINT ( 'NONE',  ( -1.149999999999999911, 0.03249999999999999417, 0.8000000000000000444 ) ) ;
#975 = CLOSED_SHELL ( 'NONE', ( #1040, #864, #952, #146, #199, #944 ) ) ;
#976 = LINE ( 'NONE', #43, #924 ) ;
#977 = CARTESIAN_POINT ( 'NONE',  ( -1.310000000000000053, 0.6174999999999999378, -0.8000000000000000444 ) ) ;
#978 = VECTOR ( 'NONE', #109, 1000.000000000000000 ) ;
#979 = ORIENTED_EDGE ( 'NONE', *, *, #339, .F. ) ;
#980 = ORIENTED_EDGE ( 'NONE', *, *, #666, .F. ) ;
#981 = DIRECTION ( 'NONE',  ( 9.427844978134818968E-17, 1.000000000000000000, -1.277711250893790151E-32 ) ) ;
#982 = CARTESIAN_POINT ( 'NONE',  ( -1.517500000000000071, 0.03249999999999999417, 0.8000000000000000444 ) ) ;
#983 = FACE_OUTER_BOUND ( 'NONE', #54, .T. ) ;
#984 = ADVANCED_FACE ( 'NONE', ( #937 ), #85, .F. ) ;
#985 = VERTEX_POINT ( 'NONE', #754 ) ;
#986 = EDGE_LOOP ( 'NONE', ( #328, #472, #49, #479, #53, #990, #1163, #1088 ) ) ;
#987 = DIRECTION ( 'NONE',  ( 0.000000000000000000, 1.000000000000000000, 0.000000000000000000 ) ) ;
#988 = DIRECTION ( 'NONE',  ( 0.000000000000000000, 0.000000000000000000, -1.000000000000000000 ) ) ;
#989 = ORIENTED_EDGE ( 'NONE', *, *, #820, .T. ) ;
#990 = ORIENTED_EDGE ( 'NONE', *, *, #481, .F. ) ;
#991 = ORIENTED_EDGE ( 'NONE', *, *, #374, .F. ) ;
#992 = CARTESIAN_POINT ( 'NONE',  ( -1.517500000000000071, 0.03249999999999999417, 0.8000000000000000444 ) ) ;
#993 = ORIENTED_EDGE ( 'NONE', *, *, #304, .T. ) ;
#994 = DIRECTION ( 'NONE',  ( -1.000000000000000000, 0.000000000000000000, 0.000000000000000000 ) ) ;
#995 = VERTEX_POINT ( 'NONE', #1126 ) ;
#996 = ADVANCED_FACE ( 'NONE', ( #276 ), #370, .F. ) ;
#997 = CARTESIAN_POINT ( 'NONE',  ( -1.517500000000000071, 0.03249999999999999417, -0.8000000000000000444 ) ) ;
#998 = DIRECTION ( 'NONE',  ( 0.000000000000000000, 0.000000000000000000, -1.000000000000000000 ) ) ;
#999 = ORIENTED_EDGE ( 'NONE', *, *, #1133, .T. ) ;
#1000 = VECTOR ( 'NONE', #576, 1000.000000000000000 ) ;
#1001 = ORIENTED_EDGE ( 'NONE', *, *, #336, .F. ) ;
#1002 = DIRECTION ( 'NONE',  ( -1.000000000000000000, 9.856383386231858827E-17, 0.000000000000000000 ) ) ;
#1003 = CARTESIAN_POINT ( 'NONE',  ( 1.517500000000000071, 0.03249999999999999417, -0.8000000000000000444 ) ) ;
#1004 = VECTOR ( 'NONE', #256, 1000.000000000000000 ) ;
#1005 = DIRECTION ( 'NONE',  ( 0.000000000000000000, 0.000000000000000000, -1.000000000000000000 ) ) ;
#1006 = EDGE_CURVE ( 'NONE', #868, #779, #1193, .T. ) ;
#1007 = VERTEX_POINT ( 'NONE', #629 ) ;
#1008 = EDGE_LOOP ( 'NONE', ( #989, #589, #1214, #623 ) ) ;
#1009 = FILL_AREA_STYLE_COLOUR ( '', #1208 ) ;
#1010 = CARTESIAN_POINT ( 'NONE',  ( -1.149999999999999911, 0.6174999999999999378, 0.5333333333333328818 ) ) ;
#1011 = DIRECTION ( 'NONE',  ( -4.745506346695990935E-16, 1.000000000000000000, 0.000000000000000000 ) ) ;
#1012 = EDGE_CURVE ( 'NONE', #788, #1191, #169, .T. ) ;
#1013 = EDGE_LOOP ( 'NONE', ( #18, #812, #244, #999, #405, #46, #1197, #1057 ) ) ;
#1014 = DIRECTION ( 'NONE',  ( -1.000000000000000000, 4.745506346695990935E-16, 0.000000000000000000 ) ) ;
#1015 = PLANE ( 'NONE',  #524 ) ;
#1016 = DIRECTION ( 'NONE',  ( -0.000000000000000000, -0.000000000000000000, -1.000000000000000000 ) ) ;
#1017 = ADVANCED_FACE ( 'NONE', ( #70 ), #3, .T. ) ;
#1018 = DIRECTION ( 'NONE',  ( 0.000000000000000000, -1.000000000000000000, 0.000000000000000000 ) ) ;
#1019 = DIRECTION ( 'NONE',  ( 0.000000000000000000, 0.000000000000000000, -1.000000000000000000 ) ) ;
#1020 = CARTESIAN_POINT ( 'NONE',  ( 1.550000000000000044, 0.6500000000000000222, 0.8000000000000000444 ) ) ;
#1021 = VECTOR ( 'NONE', #845, 1000.000000000000000 ) ;
#1022 = DIRECTION ( 'NONE',  ( 0.000000000000000000, 0.000000000000000000, 1.000000000000000000 ) ) ;
#1023 = PRODUCT_RELATED_PRODUCT_CATEGORY ( 'part', '', ( #701 ) ) ;
#1024 = FILL_AREA_STYLE ('',( #1009 ) ) ;
#1025 = VECTOR ( 'NONE', #836, 1000.000000000000000 ) ;
#1026 = DIRECTION ( 'NONE',  ( 0.000000000000000000, -1.000000000000000000, 0.000000000000000000 ) ) ;
#1027 = EDGE_CURVE ( 'NONE', #1076, #868, #1147, .T. ) ;
#1028 = AXIS2_PLACEMENT_3D ( 'NONE', #750, #446, #1120 ) ;
#1029 = CARTESIAN_POINT ( 'NONE',  ( -1.310000000000000053, 0.6500000000000000222, -0.5333333333333328818 ) ) ;
#1030 = FACE_OUTER_BOUND ( 'NONE', #1008, .T. ) ;
#1031 = LINE ( 'NONE', #495, #1127 ) ;
#1032 = CARTESIAN_POINT ( 'NONE',  ( 1.310000000000000053, 0.6174999999999999378, -0.8000000000000000444 ) ) ;
#1033 = EDGE_CURVE ( 'NONE', #535, #302, #115, .T. ) ;
#1034 = PLANE ( 'NONE',  #464 ) ;
#1035 = LINE ( 'NONE', #971, #457 ) ;
#1036 = DIRECTION ( 'NONE',  ( 0.000000000000000000, 1.000000000000000000, 0.000000000000000000 ) ) ;
#1037 = DIRECTION ( 'NONE',  ( 0.000000000000000000, 0.000000000000000000, 1.000000000000000000 ) ) ;
#1038 = DIRECTION ( 'NONE',  ( 0.000000000000000000, -1.000000000000000000, 0.000000000000000000 ) ) ;
#1039 = CARTESIAN_POINT ( 'NONE',  ( 1.517500000000000071, 0.6174999999999999378, -0.8000000000000000444 ) ) ;
#1040 = ADVANCED_FACE ( 'NONE', ( #1045 ), #394, .T. ) ;
#1041 = EDGE_LOOP ( 'NONE', ( #581, #188, #67, #124, #450, #714, #131, #507 ) ) ;
#1042 = CARTESIAN_POINT ( 'NONE',  ( 0.000000000000000000, 0.000000000000000000, -0.8000000000000000444 ) ) ;
#1043 = DIRECTION ( 'NONE',  ( 0.000000000000000000, 0.000000000000000000, -1.000000000000000000 ) ) ;
#1044 = DIRECTION ( 'NONE',  ( 0.000000000000000000, -1.000000000000000000, 0.000000000000000000 ) ) ;
#1045 = FACE_OUTER_BOUND ( 'NONE', #545, .T. ) ;
#1046 = VERTEX_POINT ( 'NONE', #17 ) ;
#1047 = ORIENTED_EDGE ( 'NONE', *, *, #7, .F. ) ;
#1048 = DIRECTION ( 'NONE',  ( 9.427844978134818968E-17, 1.000000000000000000, -1.277711250893790151E-32 ) ) ;
#1049 = EDGE_CURVE ( 'NONE', #443, #344, #384, .T. ) ;
#1050 = VECTOR ( 'NONE', #563, 1000.000000000000000 ) ;
#1051 = CARTESIAN_POINT ( 'NONE',  ( 1.310000000000000053, 0.6500000000000000222, 0.5333333333333328818 ) ) ;
#1052 = PRESENTATION_STYLE_ASSIGNMENT (( #402 ) ) ;
#1053 = ORIENTED_EDGE ( 'NONE', *, *, #76, .F. ) ;
#1054 = VECTOR ( 'NONE', #622, 1000.000000000000000 ) ;
#1055 = CARTESIAN_POINT ( 'NONE',  ( 1.099999999999999867, 0.6174999999999998268, -0.8000000000000000444 ) ) ;
#1056 = AXIS2_PLACEMENT_3D ( 'NONE', #891, #245, #425 ) ;
#1057 = ORIENTED_EDGE ( 'NONE', *, *, #255, .F. ) ;
#1058 = DIRECTION ( 'NONE',  ( 1.000000000000000000, 0.000000000000000000, 0.000000000000000000 ) ) ;
#1059 = DIRECTION ( 'NONE',  ( 0.000000000000000000, 0.000000000000000000, 1.000000000000000000 ) ) ;
#1060 = DIRECTION ( 'NONE',  ( 0.000000000000000000, 0.000000000000000000, 1.000000000000000000 ) ) ;
#1061 = CARTESIAN_POINT ( 'NONE',  ( -1.310000000000000053, 0.6174999999999999378, 0.8000000000000000444 ) ) ;
#1062 = VERTEX_POINT ( 'NONE', #674 ) ;
#1063 = STYLED_ITEM ( 'NONE', ( #1052 ), #91 ) ;
#1064 = LINE ( 'NONE', #230, #1168 ) ;
#1065 = EDGE_CURVE ( 'NONE', #903, #762, #203, .T. ) ;
#1066 = DIRECTION ( 'NONE',  ( -1.000000000000000000, 9.427844978134818968E-17, 0.000000000000000000 ) ) ;
#1067 = VERTEX_POINT ( 'NONE', #274 ) ;
#1068 = VERTEX_POINT ( 'NONE', #862 ) ;
#1069 = DIRECTION ( 'NONE',  ( 1.000000000000000000, 0.000000000000000000, 0.000000000000000000 ) ) ;
#1070 = EDGE_CURVE ( 'NONE', #494, #117, #97, .T. ) ;
#1071 = PLANE ( 'NONE',  #11 ) ;
#1072 = DIRECTION ( 'NONE',  ( 0.000000000000000000, 0.000000000000000000, -1.000000000000000000 ) ) ;
#1073 = ORIENTED_EDGE ( 'NONE', *, *, #927, .F. ) ;
#1074 = VERTEX_POINT ( 'NONE', #488 ) ;
#1075 =( NAMED_UNIT ( * ) PLANE_ANGLE_UNIT ( ) SI_UNIT ( $, .RADIAN. ) );
#1076 = VERTEX_POINT ( 'NONE', #574 ) ;
#1077 = PLANE ( 'NONE',  #569 ) ;
#1078 = EDGE_LOOP ( 'NONE', ( #1047, #1001, #726, #791 ) ) ;
#1079 = CARTESIAN_POINT ( 'NONE',  ( 0.000000000000000000, 0.000000000000000000, 0.000000000000000000 ) ) ;
#1080 = EDGE_CURVE ( 'NONE', #647, #762, #1131, .T. ) ;
#1081 = VERTEX_POINT ( 'NONE', #20 ) ;
#1082 =( GEOMETRIC_REPRESENTATION_CONTEXT ( 3 ) GLOBAL_UNCERTAINTY_ASSIGNED_CONTEXT ( ( #1161 ) ) GLOBAL_UNIT_ASSIGNED_CONTEXT ( ( #958, #1162, #210 ) ) REPRESENTATION_CONTEXT ( 'NONE', 'WORKASPACE' ) );
#1083 = VECTOR ( 'NONE', #378, 1000.000000000000000 ) ;
#1084 = CARTESIAN_POINT ( 'NONE',  ( 1.310000000000000053, 0.6174999999999999378, 0.5333333333333328818 ) ) ;
#1085 = AXIS2_PLACEMENT_3D ( 'NONE', #519, #886, #152 ) ;
#1086 = CARTESIAN_POINT ( 'NONE',  ( 1.099999999999999645, 0.6500000000000000222, -0.5333333333333328818 ) ) ;
#1087 = LINE ( 'NONE', #226, #1054 ) ;
#1088 = ORIENTED_EDGE ( 'NONE', *, *, #1080, .T. ) ;
#1089 = AXIS2_PLACEMENT_3D ( 'NONE', #637, #454, #734 ) ;
#1090 = EDGE_LOOP ( 'NONE', ( #973, #655, #332, #285 ) ) ;
#1091 = VECTOR ( 'NONE', #474, 1000.000000000000000 ) ;
#1092 = EDGE_CURVE ( 'NONE', #1143, #268, #104, .T. ) ;
#1093 = SURFACE_STYLE_FILL_AREA ( #613 ) ;
#1094 = EDGE_LOOP ( 'NONE', ( #801, #675, #1053, #834 ) ) ;
#1095 = VECTOR ( 'NONE', #371, 1000.000000000000000 ) ;
#1096 = VECTOR ( 'NONE', #579, 1000.000000000000000 ) ;
#1097 = CARTESIAN_POINT ( 'NONE',  ( -1.099999999999999645, 0.6174999999999999378, -0.5333333333333328818 ) ) ;
#1098 = EDGE_CURVE ( 'NONE', #823, #318, #6, .T. ) ;
#1099 = STYLED_ITEM ( 'NONE', ( #517 ), #866 ) ;
#1100 = CARTESIAN_POINT ( 'NONE',  ( 1.517500000000000071, 0.6174999999999999378, -0.8000000000000000444 ) ) ;
#1101 = VERTEX_POINT ( 'NONE', #568 ) ;
#1102 = ORIENTED_EDGE ( 'NONE', *, *, #1080, .F. ) ;
#1103 = SURFACE_STYLE_USAGE ( .BOTH. , #733 ) ;
#1104 = CARTESIAN_POINT ( 'NONE',  ( 1.517500000000000071, 0.6174999999999999378, 0.8000000000000000444 ) ) ;
#1105 = AXIS2_PLACEMENT_3D ( 'NONE', #135, #988, #139 ) ;
#1106 = COLOUR_RGB ( '',1.000000000000000000, 1.000000000000000000, 1.000000000000000000 ) ;
#1107 = EDGE_CURVE ( 'NONE', #345, #1067, #1031, .T. ) ;
#1108 = FACE_OUTER_BOUND ( 'NONE', #88, .T. ) ;
#1109 = ORIENTED_EDGE ( 'NONE', *, *, #704, .F. ) ;
#1110 = DIRECTION ( 'NONE',  ( -1.000000000000000000, 9.856383386231858827E-17, 0.000000000000000000 ) ) ;
#1111 = CARTESIAN_POINT ( 'NONE',  ( 1.149999999999999911, 0.6174999999999999378, 0.5333333333333328818 ) ) ;
#1112 = DIRECTION ( 'NONE',  ( 0.000000000000000000, 0.000000000000000000, -1.000000000000000000 ) ) ;
#1113 = DIRECTION ( 'NONE',  ( 1.000000000000000000, 0.000000000000000000, 0.000000000000000000 ) ) ;
#1114 = LINE ( 'NONE', #310, #1207 ) ;
#1115 = LINE ( 'NONE', #827, #920 ) ;
#1116 = ORIENTED_EDGE ( 'NONE', *, *, #527, .T. ) ;
#1117 = PLANE ( 'NONE',  #207 ) ;
#1118 = FACE_OUTER_BOUND ( 'NONE', #668, .T. ) ;
#1119 = EDGE_CURVE ( 'NONE', #917, #1076, #198, .T. ) ;
#1120 = DIRECTION ( 'NONE',  ( 0.000000000000000000, 1.000000000000000000, 0.000000000000000000 ) ) ;
#1121 = VECTOR ( 'NONE', #549, 1000.000000000000000 ) ;
#1122 = FACE_OUTER_BOUND ( 'NONE', #925, .T. ) ;
#1123 = DIRECTION ( 'NONE',  ( -1.290716872006551794E-16, -1.000000000000000000, 0.000000000000000000 ) ) ;
#1124 = LINE ( 'NONE', #195, #69 ) ;
#1125 = EDGE_CURVE ( 'NONE', #609, #587, #856, .T. ) ;
#1126 = CARTESIAN_POINT ( 'NONE',  ( -1.517500000000000071, 0.03249999999999999417, 0.8000000000000000444 ) ) ;
#1127 = VECTOR ( 'NONE', #656, 1000.000000000000000 ) ;
#1128 = LINE ( 'NONE', #401, #558 ) ;
#1129 = ORIENTED_EDGE ( 'NONE', *, *, #1012, .F. ) ;
#1130 = LINE ( 'NONE', #1140, #92 ) ;
#1131 = LINE ( 'NONE', #869, #128 ) ;
#1132 = PLANE ( 'NONE',  #841 ) ;
#1133 = EDGE_CURVE ( 'NONE', #823, #594, #1124, .T. ) ;
#1134 = LINE ( 'NONE', #283, #237 ) ;
#1135 = EDGE_LOOP ( 'NONE', ( #486, #1158, #901, #233 ) ) ;
#1136 = DIRECTION ( 'NONE',  ( 1.000000000000000000, -1.290716872006551794E-16, 0.000000000000000000 ) ) ;
#1137 = DIRECTION ( 'NONE',  ( -1.000000000000000000, 9.427844978134828829E-17, 0.000000000000000000 ) ) ;
#1138 = EDGE_CURVE ( 'NONE', #66, #302, #373, .T. ) ;
#1139 = VECTOR ( 'NONE', #1171, 1000.000000000000000 ) ;
#1140 = CARTESIAN_POINT ( 'NONE',  ( -1.517500000000000071, 0.03249999999999999417, 0.8000000000000000444 ) ) ;
#1141 = CARTESIAN_POINT ( 'NONE',  ( 1.310000000000000053, 0.6174999999999999378, 0.8000000000000000444 ) ) ;
#1142 = EDGE_LOOP ( 'NONE', ( #35, #1102, #515, #125 ) ) ;
#1143 = VERTEX_POINT ( 'NONE', #759 ) ;
#1144 = CARTESIAN_POINT ( 'NONE',  ( 1.099999999999999867, 0.6174999999999998268, -0.8000000000000000444 ) ) ;
#1145 = AXIS2_PLACEMENT_3D ( 'NONE', #1010, #1112, #225 ) ;
#1146 = DIRECTION ( 'NONE',  ( -1.000000000000000000, 0.000000000000000000, 0.000000000000000000 ) ) ;
#1147 = LINE ( 'NONE', #1141, #978 ) ;
#1148 = ORIENTED_EDGE ( 'NONE', *, *, #129, .T. ) ;
#1149 = CARTESIAN_POINT ( 'NONE',  ( 1.149999999999999911, 0.03249999999999999417, -0.8000000000000000444 ) ) ;
#1150 = ORIENTED_EDGE ( 'NONE', *, *, #1012, .T. ) ;
#1151 = DIRECTION ( 'NONE',  ( 1.000000000000000000, 0.000000000000000000, 0.000000000000000000 ) ) ;
#1152 = VECTOR ( 'NONE', #940, 1000.000000000000000 ) ;
#1153 = CARTESIAN_POINT ( 'NONE',  ( -1.517500000000000071, 0.03249999999999999417, -0.8000000000000000444 ) ) ;
#1154 = CARTESIAN_POINT ( 'NONE',  ( -1.517500000000000071, 0.03249999999999999417, -3.890865574559980278 ) ) ;
#1155 =( NAMED_UNIT ( * ) SI_UNIT ( $, .STERADIAN. ) SOLID_ANGLE_UNIT ( ) );
#1156 = ORIENTED_EDGE ( 'NONE', *, *, #1006, .T. ) ;
#1157 = VECTOR ( 'NONE', #1209, 1000.000000000000000 ) ;
#1158 = ORIENTED_EDGE ( 'NONE', *, *, #41, .T. ) ;
#1159 = EDGE_CURVE ( 'NONE', #878, #1046, #967, .T. ) ;
#1160 = DIRECTION ( 'NONE',  ( 0.000000000000000000, 1.000000000000000000, 0.000000000000000000 ) ) ;
#1161 = UNCERTAINTY_MEASURE_WITH_UNIT (LENGTH_MEASURE( 1.000000000000000082E-05 ), #958, 'distance_accuracy_value', 'NONE');
#1162 =( NAMED_UNIT ( * ) PLANE_ANGLE_UNIT ( ) SI_UNIT ( $, .RADIAN. ) );
#1163 = ORIENTED_EDGE ( 'NONE', *, *, #728, .T. ) ;
#1164 = ORIENTED_EDGE ( 'NONE', *, *, #1210, .F. ) ;
#1165 = APPLICATION_CONTEXT ( 'automotive_design' ) ;
#1166 =( NAMED_UNIT ( * ) SI_UNIT ( $, .STERADIAN. ) SOLID_ANGLE_UNIT ( ) );
#1167 = AXIS2_PLACEMENT_3D ( 'NONE', #843, #1110, #1022 ) ;
#1168 = VECTOR ( 'NONE', #1160, 1000.000000000000000 ) ;
#1169 = EDGE_CURVE ( 'NONE', #1068, #777, #111, .T. ) ;
#1170 = LINE ( 'NONE', #702, #172 ) ;
#1171 = DIRECTION ( 'NONE',  ( 0.000000000000000000, 0.000000000000000000, 1.000000000000000000 ) ) ;
#1172 = CARTESIAN_POINT ( 'NONE',  ( -1.517500000000000071, 0.03249999999999999417, -0.8000000000000000444 ) ) ;
#1173 = VERTEX_POINT ( 'NONE', #763 ) ;
#1174 = ORIENTED_EDGE ( 'NONE', *, *, #837, .F. ) ;
#1175 = ORIENTED_EDGE ( 'NONE', *, *, #68, .F. ) ;
#1176 = DIRECTION ( 'NONE',  ( -1.000000000000000000, 0.000000000000000000, 0.000000000000000000 ) ) ;
#1177 = EDGE_CURVE ( 'NONE', #1179, #966, #380, .T. ) ;
#1178 = ORIENTED_EDGE ( 'NONE', *, *, #41, .F. ) ;
#1179 = VERTEX_POINT ( 'NONE', #303 ) ;
#1180 = ORIENTED_EDGE ( 'NONE', *, *, #355, .T. ) ;
#1181 = ADVANCED_FACE ( 'NONE', ( #286 ), #669, .T. ) ;
#1182 = ORIENTED_EDGE ( 'NONE', *, *, #540, .F. ) ;
#1183 = ORIENTED_EDGE ( 'NONE', *, *, #471, .T. ) ;
#1184 = PRODUCT_CONTEXT ( 'NONE', #1165, 'mechanical' ) ;
#1185 = CARTESIAN_POINT ( 'NONE',  ( -1.149999999999999911, -2.184285145224380109, 0.8000000000000000444 ) ) ;
#1186 = VECTOR ( 'NONE', #1060, 1000.000000000000000 ) ;
#1187 = PLANE ( 'NONE',  #1085 ) ;
#1188 = LINE ( 'NONE', #1086, #72 ) ;
#1189 = EDGE_CURVE ( 'NONE', #261, #110, #397, .T. ) ;
#1190 = VERTEX_POINT ( 'NONE', #582 ) ;
#1191 = VERTEX_POINT ( 'NONE', #26 ) ;
#1192 = VECTOR ( 'NONE', #282, 1000.000000000000000 ) ;
#1193 = LINE ( 'NONE', #100, #185 ) ;
#1194 = DIRECTION ( 'NONE',  ( 0.000000000000000000, -1.000000000000000000, 0.000000000000000000 ) ) ;
#1195 = CARTESIAN_POINT ( 'NONE',  ( 1.310000000000000053, 0.6174999999999999378, -0.8000000000000000444 ) ) ;
#1196 = VERTEX_POINT ( 'NONE', #1149 ) ;
#1197 = ORIENTED_EDGE ( 'NONE', *, *, #1107, .T. ) ;
#1198 = ORIENTED_EDGE ( 'NONE', *, *, #1169, .T. ) ;
#1199 = EDGE_CURVE ( 'NONE', #261, #386, #684, .T. ) ;
#1200 = CARTESIAN_POINT ( 'NONE',  ( 1.099999999999999867, 0.6174999999999999378, -0.8000000000000000444 ) ) ;
#1201 = CARTESIAN_POINT ( 'NONE',  ( -1.099999999999999645, 0.6174999999999999378, -0.5333333333333328818 ) ) ;
#1202 = ORIENTED_EDGE ( 'NONE', *, *, #121, .F. ) ;
#1203 = CARTESIAN_POINT ( 'NONE',  ( -1.149999999999999911, 0.000000000000000000, 0.8000000000000000444 ) ) ;
#1204 = ORIENTED_EDGE ( 'NONE', *, *, #179, .T. ) ;
#1205 = LINE ( 'NONE', #1111, #570 ) ;
#1206 = FACE_OUTER_BOUND ( 'NONE', #511, .T. ) ;
#1207 = VECTOR ( 'NONE', #299, 1000.000000000000000 ) ;
#1208 = COLOUR_RGB ( '',0.8000000000000000444, 0.8078431372549019773, 0.8000000000000000444 ) ;
#1209 = DIRECTION ( 'NONE',  ( 1.000000000000000000, 0.000000000000000000, 0.000000000000000000 ) ) ;
#1210 = EDGE_CURVE ( 'NONE', #443, #1101, #588, .T. ) ;
#1211 = ORIENTED_EDGE ( 'NONE', *, *, #1107, .F. ) ;
#1212 = VERTEX_POINT ( 'NONE', #1225 ) ;
#1213 = PLANE ( 'NONE',  #501 ) ;
#1214 = ORIENTED_EDGE ( 'NONE', *, *, #381, .F. ) ;
#1215 = FACE_OUTER_BOUND ( 'NONE', #1094, .T. ) ;
#1216 = ADVANCED_FACE ( 'NONE', ( #367 ), #786, .F. ) ;
#1217 = ORIENTED_EDGE ( 'NONE', *, *, #232, .F. ) ;
#1218 = VECTOR ( 'NONE', #161, 1000.000000000000000 ) ;
#1219 = CARTESIAN_POINT ( 'NONE',  ( 1.517500000000000071, 0.6174999999999999378, 0.8000000000000000444 ) ) ;
#1220 = VECTOR ( 'NONE', #865, 1000.000000000000000 ) ;
#1221 = CARTESIAN_POINT ( 'NONE',  ( -1.099999999999999867, 0.6174999999999999378, -0.8000000000000000444 ) ) ;
#1222 =( GEOMETRIC_REPRESENTATION_CONTEXT ( 3 ) GLOBAL_UNCERTAINTY_ASSIGNED_CONTEXT ( ( #712 ) ) GLOBAL_UNIT_ASSIGNED_CONTEXT ( ( #722, #58, #1166 ) ) REPRESENTATION_CONTEXT ( 'NONE', 'WORKASPACE' ) );
#1223 = DIRECTION ( 'NONE',  ( 0.000000000000000000, 1.000000000000000000, 0.000000000000000000 ) ) ;
#1224 = EDGE_CURVE ( 'NONE', #386, #788, #144, .T. ) ;
#1225 = CARTESIAN_POINT ( 'NONE',  ( -1.517500000000000071, 0.6174999999999999378, 0.8000000000000000444 ) ) ;
ENDSEC;
END-ISO-10303-21;
